<svg id="root" xmlns="http://www.w3.org/2000/svg" width="768" height="441"  viewBox="0 0 27110 14070">
  <g>
    <path
      d="M1130 13470c-58-4-120-8-137-9-30-1-33-4-33-33 0-30 6-36 58-64 592-314 1093-576 1767-922 611-313 1013-556 1575-952 682-481 1124-834 2820-2250 1856-1551 2328-1924 3420-2705 283-202 628-452 767-556 289-216 372-272 685-467 929-580 2054-1224 2743-1572 407-206 585-280 671-280 41 0 43 2 73 55 171 303 576 1443 682 1920 41 187 45 175-54 208-415 143-1435 709-2692 1494-1104 690-2167 1433-3885 2713-807 601-1101 811-1605 1145-1404 930-2675 1561-3860 1916-608 183-1184 292-1840 350-153 13-1004 20-1155 9zM16965 6039c-92-12-194-43-280-86-132-65-133-67-140-131-44-426-183-889-422-1412-192-418-344-708-448-855-23-33-81-103-128-155-74-81-86-100-87-130 0-80 158-280 264-334 95-48 153-57 386-63 247-6 291 0 407 56 238 115 475 410 692 862 101 211 148 330 272 685 166 478 220 683 240 917 39 464-136 660-586 656-55-1-131-5-170-10zM17880 5265c0-31-57-411-80-536-79-419-198-799-327-1039-25-47-131-237-235-423-144-258-188-345-188-372v-35h48c111 0 365-56 562-125 360-126 698-301 1540-797 554-327 717-419 996-566 653-344 1221-552 1768-647 262-46 396-56 866-62 624-8 947 11 1173 68 461 117 676 372 743 883 21 158 15 692-11 896-76 615-258 1028-535 1213-93 63-82 67-445-178-269-182-393-256-459-275-41-11-48-10-78 8-46 29-150 139-233 247-359 468-384 484-667 409-143-37-220-80-344-190-59-53-141-121-182-151l-73-55-57 34c-31 18-98 74-147 123-88 88-108 115-256 360-107 176-270 310-429 351-113 29-161 15-410-119-315-170-383-188-495-133-120 59-215 178-400 501-119 207-188 309-232 342-32 25-35 25-180 21-131-4-157-8-223-33-96-35-192-84-293-147l-80-50-63 17c-138 37-264 143-418 348-82 109-91 117-122 117-19 0-34-2-34-5z" />
    <path
      d="M24383 4146c-126-24-214-59-300-118-37-25-43-34-43-63v-35h63c48 0 75-6 122-29 77-38 111-69 175-160 285-406 443-806 506-1285 21-163 30-647 15-798-36-347-137-584-337-797-91-97-95-119-31-178 59-54 118-87 207-115 64-19 96-23 215-22 256 1 436 74 606 243 182 182 249 377 249 718-1 617-106 1227-302 1753-191 513-431 789-758 874-88 23-294 29-387 12zM25700 3260c0-16 18-79 41-139l41-110 97-55c119-68 198-130 252-198 123-155 164-381 96-520-45-91-123-159-219-191-16-6-18-23-18-162v-155h48c188 1 389 126 470 293 49 101 62 172 62 338 0 298-69 513-219 681-127 141-380 247-588 248h-63v-30z" />
  </g>
  <path
    d="M1411 14060c-322-17-612-49-966-106l-220-36-112-111-113-112v-340l78-76c94-93 22-54 1192-641 1291-648 1480-749 1790-957 113-76 363-238 555-361 774-493 889-575 1715-1235 535-427 606-482 840-656 220-163 395-308 715-590 305-269 472-412 595-508 169-131 223-176 673-560 237-202 537-447 675-550 136-103 366-281 512-396 855-674 942-738 1790-1310 311-210 614-416 673-459 482-343 2201-1322 2970-1691 136-66 146-72 146-98 2-59 42-227 72-298 68-162 204-326 376-455 94-72 161-105 264-134 248-67 728-80 903-23 125 40 551-25 905-139 211-67 698-276 921-395 58-31 143-81 190-113 95-63 373-230 615-370 88-50 182-107 208-126 263-189 893-498 1412-692 455-171 776-260 1180-327 387-65 655-85 1124-85 410 0 549 17 891 109 80 21 168 44 196 51l51 11 119-71c261-155 517-220 814-206 170 8 285 37 436 111 373 182 624 537 724 1022 10 53 20 97 22 99s36 16 76 33c128 52 220 111 324 210 246 234 368 542 368 932 0 122-5 170-30 292-28 139-33 153-123 334-106 211-180 316-318 449-108 104-192 162-320 224-120 57-242 94-386 118-100 17-102 17-122 53-11 19-50 75-86 124-262 352-586 576-958 662-98 23-134 27-292 27-251 0-423-37-571-125-134-79-304-281-406-483-38-75-149-206-175-206-5 0-53 48-105 108-139 156-332 340-416 396-317 210-668 177-999-95-39-32-76-59-81-59s-27 30-48 67c-29 52-93 123-274 304-263 264-290 282-450 315-159 32-466 1-605-61-30-13-94-51-142-84-47-34-94-61-102-61-22 0-55 52-90 142-38 100-87 188-153 274-29 38-74 99-100 135-99 139-233 235-393 281-101 29-307 31-425 4-101-23-264-78-357-121-42-19-83-35-92-35-11 0-25 24-43 78-15 42-48 111-72 152s-74 133-110 203c-284 559-665 798-1231 774-145-6-257-25-373-63-87-30-235-101-301-147l-44-30-409 204c-225 112-414 210-421 217-6 8-122 70-258 137-136 68-278 144-315 168-38 25-202 120-364 212s-326 185-365 207c-38 22-173 109-300 193-126 84-428 277-670 430-768 484-806 511-2015 1396-2062 1511-3200 2295-4205 2896-635 380-1031 581-1595 808-1285 517-2198 756-3155 825-202 15-644 20-834 10zm844-629c1265-111 2385-444 3705-1103 666-332 1285-693 1995-1163 504-334 798-544 1605-1145 1718-1280 2781-2023 3885-2713 1255-784 2277-1351 2691-1493l81-28-24-111c-115-536-646-1985-727-1985-80 0-652 272-1166 554-716 394-1551 882-2218 1298-313 195-396 251-685 467-139 104-484 354-767 556-1092 781-1564 1154-3420 2705-1696 1416-2138 1769-2820 2250-562 396-964 639-1575 952-689 354-1508 781-1765 922-65 36-65 36-30 37 19 1 82 5 140 9 149 11 940 4 1095-9zm15020-7421c314-45 446-238 414-604-19-217-76-433-238-900-124-355-171-474-272-685-217-452-454-747-692-862-115-55-162-62-377-56-258 8-344 33-449 131-54 52-125 144-155 204l-17 33 68 76c159 176 250 320 412 648 382 773 552 1277 606 1797 7 64 8 66 140 131 163 81 371 114 560 87zm730-886c151-202 270-303 403-344 101-31 130-27 221 29 99 63 196 111 291 146 61 23 97 29 192 33 116 4 119 4 153-22 42-32 135-173 265-401 206-360 345-486 522-472 87 7 171 42 398 164 204 110 240 125 303 124 146 0 356-158 476-357 145-239 169-273 251-355 48-48 119-106 162-133l77-48 85 61c46 34 130 102 185 152 154 138 239 181 439 222 156 33 204-6 527-428 83-108 187-218 233-247 49-30 121-21 219 27 43 21 199 120 348 220 148 100 290 193 315 208l46 27 54-37c277-185 460-600 535-1213 25-205 32-681 11-836-67-511-282-766-743-883-224-57-546-76-1138-68-443 7-585 17-841 62-547 95-1115 303-1768 647-279 147-442 239-996 566-842 496-1180 671-1540 797-197 69-451 125-562 125-27 0-48 2-48 5s85 157 188 342c104 186 210 376 235 423 129 240 248 620 327 1039 23 125 80 505 80 536 0 13 14-3 95-111zm6735-1020c266-68 486-277 650-619 174-361 308-850 370-1348 31-244 46-631 32-784-22-230-92-384-241-534-162-161-351-241-576-242-166-1-289 41-392 136l-43 39 74 79c200 213 301 451 337 797 16 154 7 696-15 858-64 480-221 879-506 1285-64 91-98 122-175 160-48 23-73 29-125 29-75 0-73 6 24 64 159 95 398 128 586 80zm1145-863c360-75 575-300 640-675 19-112 19-301 0-383-53-224-229-385-458-418l-48-7 3 127 3 128 38 13c89 31 176 123 213 224 21 59 21 223-1 305-50 189-150 308-367 431-70 40-99 63-106 82-6 15-24 64-41 110l-30 82h32c17 0 73-9 122-19z"
    fill="#EEEEBF" />
</svg>