<svg id="root" xmlns="http://www.w3.org/2000/svg" width="768" height="441"  viewBox="0 0 24220 13600">
  <g>
    <path
      d="M17445 13549c-542-114-895-206-1185-309-80-28-163-55-185-60-63-14-267-29-565-40-167-7-300-17-339-26-35-8-143-48-240-88-201-85-258-103-347-112-53-6-64-10-64-25 0-13 8-19 23-20 17-1 18-2 4-6-9-2-15-9-12-14 7-11 65-12 65-1 0 4 99 8 220 9 214 2 223 3 313 32 50 16 120 35 154 41 67 13 116 39 78 40-19 1-19 2 2 10 31 13 306 45 628 75 334 31 506 56 676 98l126 32-34-130c-37-136-37-139-12-282l11-61 145-51c80-29 148-49 151-46s-7 105-22 228l-27 222-71 71c-38 39-66 74-61 77 20 13 287 90 436 126 89 22 347 76 572 121 226 44 460 93 520 109l110 29h-840l-230-49zm-2827-676c-10-2-26-2-35 0-10 3-2 5 17 5s27-2 18-5z" />
    <path
      d="M8290 13268c-96-22-176-44-178-49s-19-9-38-9c-78 0-344-70-489-128-11-5-78-28-150-52-113-37-147-54-260-129l-130-86-221-54-221-55-82-270c-93-312-89-270-62-656 16-214 26-298 55-435 49-230 48-226 25-175-86 190-146 575-134 860l7 155 79 221c43 122 79 233 79 248 0 23-4 26-36 26-46 0-126-20-139-35-176-207-312-407-406-600-127-260-179-456-187-706l-5-156 80-164c62-127 112-210 223-371l143-207 296-172c163-95 301-176 306-181 11-10 8-9-278 107l-197 80-88 95c-48 52-135 140-194 195-60 54-111 107-114 117-4 13-15 18-40 18-31 0-34-3-34-30 0-35 55-162 123-285 165-298 402-561 691-768 77-56 81-57 145-57 36 0 158 7 271 15 299 21 322 19 160-16-313-68-280-57-280-94 0-31 3-34 113-85 396-186 812-290 1232-307l150-6 125 78c69 43 171 114 228 158l102 80v143l51 49c28 28 84 89 125 137 62 72 74 92 74 122 0 35-1 35-67 55-38 11-100 29-139 40-43 13-99 21-140 21l-69-1-60-78c-54-71-72-86-182-151l-121-73-12-59c-7-32-18-62-24-66-16-12-318-124-322-119-3 2 46 26 107 53l110 49 103 120c137 161 186 233 186 273v32h-279l-158-102c-205-132-297-168-532-209-95-17-175-28-177-26s89 28 203 57c204 52 211 54 366 139 152 83 157 87 157 117v32l-117 7c-65 4-175 5-245 1l-128-6v29c0 26-13 36-182 134-101 58-232 141-293 186-206 150-225 181-30 51 55-37 201-127 325-200 250-148 211-136 380-110 36 5 100 10 143 10h77v33c-1 30-8 37-151 126-82 52-152 97-155 102-2 4 94-53 215-127l219-135 118-10c91-8 170-7 337 4l218 14 82-24c45-13 251-70 457-127l375-104 215-6c118-4 261-9 318-13l102-6v41c0 27-28 112-85 257-76 195-88 238-129 433l-44 217-7 325c-4 235-2 403 9 606 14 264 16 284 41 335 14 30 23 45 19 34-3-11-10-112-15-225-4-113-15-365-24-560l-17-355 86-303c61-215 114-375 183-552l96-250 103-55c57-30 115-55 129-55s85-33 157-73c120-66 141-75 218-85 47-7 100-12 118-12 29 0 32 3 32 33 0 17 7 167 14 332l15 300-43 177-42 177 11 110c6 61 13 112 16 115 11 11 51-290 69-529 19-234 19-262 5-435-20-249-20-297 3-304 9-3 107-24 217-46 197-39 200-40 230-75 22-26 38-35 60-35 28 0 34 6 72 83 48 97 93 280 118 485 13 107 24 151 54 222l37 88-4-126c-2-74-15-191-31-282-26-148-29-158-68-210-33-45-46-77-73-180-52-199-51-201 16-294 41-56 101-115 208-207 201-171 192-171 282-4 37 68 69 123 71 121 2-1-24-63-57-136s-60-145-59-159c0-18 13-37 43-61 42-35 42-37 86-204l43-170 102-140 102-141 38-170 38-170 90-110c82-102 88-113 83-145-3-19-9-82-12-140l-6-105 45-130c32-91 49-159 56-225 6-52 20-142 31-200 26-135 25-173-5-298-14-57-25-112-25-122s20-66 45-126c25-59 45-115 45-124 0-10-10-39-21-66-20-43-21-59-15-159 9-155-11-252-86-435-56-136-64-150-128-215-59-60-80-92-143-220-72-145-78-153-162-230-48-43-129-110-179-146-102-74-166-155-166-209 0-30 0-30 58-30 94-1 124-12 203-81 41-36 115-93 164-128 117-83 123-90 45-47-67 36-303 106-359 106-28 0-31-3-31-33 0-29 19-51 171-202 146-146 193-200 244-284 7-13-111 82-269 216-28 23-50 33-73 33-31 0-33-2-33-34 0-19 16-72 35-117 34-80 35-88 35-210 0-118 2-131 30-199 17-40 29-75 27-76-2-2-20 29-40 69-33 65-38 86-52 220l-16 148-95 121c-72 91-113 157-166 262-39 78-71 142-72 142-3 4-475 54-503 54-31 0-33-2-33-33 0-19 34-112 79-217l79-185 6-320 6-321-91-244c-50-135-98-256-106-270-9-14-106-134-214-267l-198-241-248-183-248-183-120-38c-66-21-124-37-129-35-4 1 56 27 135 57l144 54 187 144 186 143 210 250 210 250 95 272 95 272 7 308 7 308-67 179-68 180h-33c-37 0-34 13-54-223l-10-117-175-273-175-273-182-59c-101-32-190-60-198-62-8-3 65 40 162 94l178 99 149 234 149 235 36 270c20 149 36 286 36 305 0 34-6 39-191 170-104 74-196 142-203 150s-34 69-60 135c-39 102-56 133-112 200-37 44-72 89-79 100s-23 76-36 145l-23 125-106 125-106 125-148 835c-89 501-155 845-164 860-8 14-97 109-196 213-197 205-182 195-291 180l-48-6 7-116c6-106 5-117-12-128-17-10-23-1-68 89-27 55-57 104-66 109s-35 9-57 9h-41v-712l-152-214-152-214-119-80c-86-58-127-80-150-80-56 0-71-10-110-69l-37-58-68-11c-37-7-130-34-207-62-143-51-178-57-253-45-40 7-46 5-92-34l-49-41h-559l-168 61c-124 45-184 73-228 106-60 44-62 44-121 38-74-7-99 1-174 60-44 35-66 45-94 45-53 0-108 40-150 108-50 83-56 107-40 172 7 30 13 72 13 94v38l-40-4c-44-4-50 3-50 56 0 18-3 55-6 81-7 44-10 48-52 66-25 11-59 19-76 17-29-3-30-5-144-323l-114-320 31-288 30-288 153-164c142-152 169-175 370-322 143-104 282-195 406-265l189-108 32-91c32-90 32-92 21-188-6-53-13-108-16-123l-5-26-80 5-79 6v-35c0-34 2-35 53-47 64-15 1300-161 1359-161 24 0 106 11 183 25s237 39 355 56l214 30 54 47c142 124 134 115 130 152-3 33-5 35-53 43-49 8-103 44-88 58 13 11 148 49 177 49 23 0 26-4 26-35 0-33 2-35 33-35h32l107 238 107 237 49 405 49 405-8 415-8 415-79 273c-44 149-78 272-77 272 2 0 29-32 60-70 57-70 59-74 128-298l71-227-2-360c-1-198 2-414 7-480 12-167-16-455-61-610-32-111-254-622-287-659-9-10-93-87-186-171l-171-153-199-26c-110-15-276-41-370-58-120-21-188-28-230-25-211 18-636 76-910 123-289 50-343 63-556 130-130 41-247 74-260 74s-83-14-156-32l-131-32-204 23-203 24-91 49c-87 48-95 55-169 154-71 96-80 104-110 104-31 0-34-3-40-41l-7-41-37 36c-30 29-46 36-94 42l-57 7v-38c0-21 36-138 84-273 69-195 96-258 154-356 66-112 75-122 156-182l86-64h366l149-63c144-60 157-68 330-202 137-106 233-170 405-270s270-165 415-277l191-146 319-42 319-42 225 26c243 28 290 39 805 191l228 67 227 199 226 199 83 157c77 146 86 168 122 317 21 89 61 274 89 411 48 237 51 261 57 458 8 259 20 256 59-14l26-184-55-265c-31-146-73-335-94-420l-38-155-127-185c-126-185-126-185-349-394l-223-209-235-69c-129-38-329-89-444-113-269-58-346-59-795-10-177 19-339 35-361 35h-40l1-42c0-24 10-79 22-123l22-79 250-207 250-207 33-74c19-40 35-74 36-75s141-28 311-59l310-57 350 20 350 19 234 123c129 67 253 135 275 150 87 59 87 50 1-11-27-19-142-95-255-168l-204-133-271-24c-368-33-525-27-784 28-101 21-199 39-218 39h-36l6-42c2-24 35-105 72-180l67-137 111-70c98-62 129-88 247-215l134-145 181-68 180-67 80-81c44-44 127-129 184-189l103-108 126-25c70-14 150-23 179-21l53 3v-35c0-32 5-38 60-72 35-22 119-56 198-82 130-42 146-44 322-55 151-10 229-21 425-61 185-38 279-51 411-60l170-12 125 65c68 36 212 105 319 153 107 49 287 137 400 197 181 96 214 117 278 180l74 72-7-45c-6-34-24-66-79-137l-71-92-150-61c-82-34-239-100-347-148l-198-87v-68l68 6c37 3 171 28 297 56 127 28 340 69 475 91l245 40 310 122c171 66 315 126 321 132s16 43 23 82c7 47 28 108 61 179 39 84 52 124 60 189 15 128 62 278 137 441 69 149 70 151 77 260 4 61 13 141 19 180l12 69 17-43c13-33 16-61 11-126-3-46 0-132 6-192l13-108-52-110c-88-185-190-455-190-500 0-35 6-47 48-88 67-66 85-64 225 21 371 227 350 211 411 294 53 72 66 82 159 132 56 30 110 61 119 68 12 9 23 54 39 163l22 150-22 140-23 140 31 109c17 60 31 131 31 157 0 45-20 183-74 504-30 181-36 225-31 225 14 0 48-81 69-165 14-55 41-135 61-177l35-77v-842l27-90 27-89h36c34 0 45 9 157 127 66 71 182 207 259 303 111 140 156 207 223 330l84 155 108 73 109 72v49c0 45-42 237-125 571-18 74-41 191-51 260-16 116-23 138-95 301-43 97-96 214-119 260l-42 84 30-29c17-15 73-110 125-210 93-178 95-185 155-411 33-126 79-324 102-440 52-266 45-245 84-245 27 0 35 6 49 36 10 19 103 178 207 353s194 329 199 342c4 13 19 85 31 159l23 135-90 200c-56 125-157 320-269 518l-180 318-155 126c-190 155-461 337-769 518-235 138-277 165-230 147 222-84 315-131 523-263 238-151 277-167 277-108 0 26 3 29 21 24 105-34 433-222 599-344 58-43 140-97 183-120 43-24 120-78 171-121 98-83 148-110 200-110 31 0 32 2 84 133l52 132v345l36 95c21 56 34 108 32 126-3 31-5 33-138 78-141 49-174 68-415 254-62 48-84 58-200 91-76 22-156 53-193 74l-64 37 39 4c54 5 385-20 405-31 10-4 59-38 110-73 79-55 105-81 168-168l76-102 94-27c117-33 165-35 180-9 5 11 10 76 10 144v125l-161 93c-125 73-208 133-379 270l-218 176-273 38c-306 42-737 134-878 187-46 18-79 34-74 35 6 2 77-7 159-21 279-47 469-74 764-110 162-20 309-40 327-45 17-5 141-88 276-185l245-176 99-6 100-7 18 178c18 172 18 184 1 376l-18 199 23 193 22 194-24 113-24 113-305 158c-342 177-312 169-495 141l-110-17-170 51c-93 29-238 79-322 112-113 44-183 65-276 82l-124 22-209-31c-197-29-507-62-570-60h-29l35 14c85 34 439 116 602 139l177 26 108-20c59-11 139-20 177-20 67 0 71-1 171-66 87-55 126-72 247-109 158-49 187-52 363-31l109 13 258-139c174-93 267-138 288-138h32l-6 63c-4 34-10 181-14 327l-7 265-83 235c-76 215-87 256-127 476-25 133-54 271-65 307-26 83-22 83-218 22-80-25-215-62-301-82-207-47-420-59-650-35l-154 16 144 32c122 27 173 32 339 38 177 7 210 11 360 46 91 21 219 55 285 77l120 39 3 37c2 21-4 62-12 91-9 30-19 102-23 160-5 85-9 107-22 110-9 3-133 10-276 17l-260 11-280-66c-154-37-460-109-681-161l-400-93-257-132c-223-114-332-161-372-159-5 0 22 13 60 28 39 15 183 100 320 188l250 159 270 92 270 91 440 75c400 68 460 75 661 85 122 6 231 11 243 11 19 0 21 5 21 54 0 47-12 77-105 268l-104 214-288 13-288 12-145-35c-145-35-254-48-515-62-123-7-133-9-192-41-35-19-63-33-63-31 0 3 28 26 61 52 58 45 75 52 288 113 272 79 222 69 476 93 174 16 226 25 299 50 68 23 108 30 163 30h73v35c0 34-149 346-317 665-68 127-73 143-99 275-19 101-36 159-60 208-32 63-36 67-69 67-19 0-115-24-212-54-130-39-244-64-423-95-135-23-261-49-280-57-48-21-32-9 94 77l109 73 171 33c94 18 242 54 329 80l157 47v39c0 61-31 105-169 235-105 99-153 154-241 278-100 138-114 154-140 154-75 0-818-117-1090-171-281-57-318-62-472-67l-167-5-43-51c-57-68-376-413-389-421-5-4 35 84 91 194 70 140 100 211 100 236v35h-247c-140 0-318 7-408 15-88 8-170 15-182 15-18 0-53-41-159-182-75-101-144-190-152-198-18-18-26-32 101 177 66 107 87 150 87 176 0 40-2 41-160 52-47 4-231 38-410 76-412 89-769 159-806 159-29 0-30-2-102-197-213-584-255-769-256-1133v-215l42-135c23-74 46-162 51-195 11-71 25-322 18-315-20 21-183 632-212 795l-15 89 40 215c99 521 172 789 271 981 22 42 39 90 39 107 0 37 46 29-432 78l-336 35-206 70c-113 39-220 70-238 70h-33l-59-155c-32-86-60-154-62-153-1 2 11 64 27 138 15 74 29 153 29 175v40l-172 57-173 57-383 46c-210 25-388 45-395 44s-91-19-187-41zm-805-525c-71-162-105-252-105-277 0-70 80-549 109-650 23-82 28-114 24-168-3-37-9-65-14-62-5 2-42 110-84 238l-75 233v521l123 205c67 113 123 204 125 203 1-2-45-111-103-243zm501-38c-31-114-56-219-56-234 0-14 23-152 50-305 44-244 50-297 50-413v-134l59-102c50-86 61-116 75-191 16-89 15-120-3-75-5 13-30 69-56 124s-71 159-100 232c-47 118-54 144-65 255-7 68-24 195-39 283-23 139-26 175-20 277 7 114 9 121 81 306 40 105 74 189 76 187s-22-96-52-210zm1495-580c-13-175-26-215-94-308l-57-77v-168c0-93-3-211-7-262l-6-92-37 105-37 105 17 114c17 107 23 124 98 274l79 159 7 169c3 93 14 210 24 260l17 91 3-120c2-66-2-178-7-250zm3534-247c-60-62-122-126-138-143l-29-30 33 63c27 54 48 76 133 142 56 44 103 79 105 80 2 0-45-51-104-112zm-5858-105c-3-10-5-2-5 17s2 27 5 18c2-10 2-26 0-35zm4793-60c-5-16-46-143-92-283l-83-255-5-270c-3-148-7-265-8-260-1 6-15 73-31 150l-30 139 91 346c73 282 96 355 125 403 38 63 46 71 33 30zm-4611-717c39-115 69-211 68-213-9-9-53 72-132 247l-89 195-7 115c-15 242-13 244 41 45 27-99 81-274 119-389zm7046 446c-43-38-414-279-399-259 42 55 229 191 314 229 92 40 99 42 85 30zm-7737-470c39-70 80-150 92-177 36-83 60-145 56-145-2 0-26 35-54 79-40 63-89 168-169 359-3 6-3 12 0 12s37-57 75-128zm7894-406c-67-46-158-113-204-149-46-35-126-86-178-112s-125-67-162-91l-67-43-223-11-223-11-80-41c-44-23-105-59-135-80-40-28-44-30-15-7 22 18 135 128 250 245 165 167 230 226 305 275l95 62-133-138c-126-130-133-140-130-174l3-36 167-8 168-8 137 82c76 46 210 130 298 188 155 101 220 140 239 141 5 0-46-38-112-84zm-1643-978c-192-299-227-353-199-298 47 90 381 610 391 610 4 0-82-140-192-312zm1851-2003c-63-19-203-63-310-100l-195-65-190-5-190-5 60 20c40 13 116 24 224 32 159 12 172 14 405 84 133 40 257 72 276 73 23 0-3-11-80-34zm42-787c103-28 87-33-117-42-147-6-169-4-265 18-94 22-100 24-60 26 25 2 97 6 160 10 191 11 200 11 282-12zm-727-32c-39-7-122-35-189-64-66-29-129-52-140-52-12 0 26 26 84 57 93 51 114 58 180 63 118 10 141 8 65-4zm-4721-789c14-37 26-79 26-93v-25l-42 29-43 29 3 78c4 92 14 89 56-18zm5241-141c99-6 122-12 228-54 66-25 115-48 110-49-5-2-98 15-206 37l-197 40-418 6c-241 4-441 11-475 18-46 9 34 11 395 10 249 0 503-4 563-8zm-4990-176c6-19 4-20-12-12-52 29-56 36-48 88l7 49 23-52c13-28 26-61 30-73zm-2037-95c7-6-10-85-17-85-10 0-111 119-111 130 0 7 117-34 128-45zm1429-1c28-8-14-76-71-117l-29-21 6 60c9 87 13 94 50 88 18-3 38-7 44-10zm-453-51c-20-82-35-89-54-24-8 28-6 33 13 41 40 16 48 12 41-17zm696-112c0-9-45-31-63-31-7 1 1 12 17 25 28 22 46 25 46 6zm-999-81c33-85 37-130 13-130-9 0-43 26-77 59-60 58-60 59-47 90 12 30 55 63 73 58 5-2 22-36 38-77zm5969 55c135-12 438-70 426-82-2-2-160 12-352 32-263 26-361 40-399 55l-50 20 110-6c61-3 180-12 265-19zm-6826-126 63-12-10-36c-6-20-12-37-13-39s-25 8-53 22c-32 17-57 38-67 58-15 29-15 30 0 25 9-4 45-12 80-18zm2180-151c24-34 20-42-27-60-43-16-132-14-142 2-7 12 27 37 80 59 64 26 71 26 89-1zm5098-73c178-43 188-47 382-147l200-103 114-140 115-140-104 102c-87 85-134 120-294 220l-190 119-227 60c-140 36-221 62-210 66 25 10 18 11 214-37zm-6664-32 47-48-29-3c-31-4-116 24-116 38 0 21 24 60 37 60 7 0 35-21 61-47zm1532-153c0-29-2-30-42-30-82 0-83 30-2 49 21 5 40 9 42 10 1 1 2-12 2-29zm1513-416c-2-16-10-128-18-249l-16-220-82-214-82-214-186-201c-103-111-208-219-235-241s-87-72-134-110l-85-70 112 120c61 66 187 210 281 321l169 201 75 194c69 177 80 217 129 457 32 156 57 261 64 259 5-2 9-17 8-33zm-3013-25-55-50-8 32c-10 38-7 41 46 56 71 19 74 14 17-38zm5226-30c46-13 96-35 125-56 27-19 49-36 49-38s-46 17-102 42c-57 25-116 52-133 59-43 19-26 17 61-7zm594-406 145-118 68-130c41-79 83-178 107-255l40-125 108-130 108-130 52-220c83-357 92-413 92-608 1-95 7-217 14-272l14-100-56-143c-30-78-56-141-57-140-1 2 4 66 11 143 14 138 13 142-12 270-26 128-26 132-14 300 12 166 12 173-14 335-39 239-88 385-193 578-47 87-103 201-124 254-21 54-68 156-104 227l-64 129-216 182c-118 99-215 183-215 185 0 10 172-119 310-232zm1510-55c26-49 73-114 120-165 71-77 79-91 104-170 14-47 25-88 23-90-3-2-14 19-26 48-14 32-51 81-100 132-64 67-87 100-122 177-32 68-67 123-127 195-117 140-120 155-10 47 72-71 105-113 138-174zm-2432-500c66-101 92-154 146-294l66-171v-649l-73-170c-61-140-86-219-152-466-44-163-81-295-83-293-2 1 25 137 59 301 61 296 61 299 121 418l60 121-10 361-11 361-90 259c-49 142-96 278-105 302-8 23-14 42-12 42s39-55 84-122zm-263-528c5-88 16-147 45-250 35-122 38-139 27-177-6-24-14-43-17-43-4 0-13 46-20 102-8 68-29 151-61 247-51 150-54 178-42 305l6 69 27-69c22-54 29-94 35-184zm-2592-81c-18-18-245-120-262-118-6 0 269 136 279 138 2 1-5-9-17-20zm2130-630c-34-61-55-118-88-242-39-149-49-175-130-322-48-88-104-194-125-236-35-69-53-89-194-217-90-82-167-144-183-148-16-3-90-22-167-41-76-18-140-32-142-30s67 32 154 67l157 63 133 131c191 188 256 278 322 446 36 93 67 154 98 194 43 56 48 69 79 207 20 92 46 177 69 226l36 78 13-48c13-48 13-48-32-128zM11060 887c-8-8-53-45-100-84l-85-70-149-32c-82-17-151-30-152-28-4 4 475 224 496 226 2 1-2-5-10-12zm1166-196c-23-26-78-51-108-50-16 0-2 11 47 34 83 40 83 40 61 16zM17557 12692c-11-49-15-95-11-125l7-46 71-24 71-24-15 103c-15 102-16 104-61 149l-45 46-17-79zM18966 12609c-70-50-126-96-123-102 2-7 17-49 32-93l29-82 133-18 134-18 49 49c28 27 50 56 50 64 0 7-14 65-31 128l-32 114-48 25c-27 13-52 24-57 24s-66-41-136-91zM16445 12465c-66-30-137-61-157-69l-38-16 25-69c14-38 45-113 70-166l45-97 33 6c17 3 51 8 73 12l42 6 67 140c38 78 68 146 68 152 0 14-94 156-102 155-3 0-60-25-126-54zM2010 12502c0-12 140-54 340-102 211-52 217-54 515-170 399-156 497-184 845-245 260-46 381-75 551-135 216-76 209-75 848-72 511 3 563 2 558-12-5-11-1-16 12-16 21 0 41 45 41 91 0 31-14 38-27 14-7-12-21-11-98 11-230 63-241 65-575 74-420 11-579 39-808 145-73 34-85 36-228 45-266 16-360 35-809 160-344 96-779 185-1014 209-125 13-151 14-151 3zM17767 11865c-37-51-70-100-73-109-9-23 61-131 112-173l45-36 89 88 89 89-27 48c-15 27-58 79-97 117l-70 70-68-94zM16382 11795l-70-97 34-57c18-31 53-73 77-93l44-36 81 81 81 82-29 50c-16 28-56 76-88 108l-59 59-71-97zM5055 11662c-38-8-75-18-81-23-16-13-27-93-19-129l7-30h78c77 0 78 0 85 28 6 24 8 163 2 167-1 1-33-5-72-13zM18155 11464c-66-46-120-89-120-96s7-46 14-85c16-82 12-79 121-88 41-3 87-8 101-11 25-5 28-1 47 58 12 35 26 96 32 137l11 73-42 47c-24 25-43 47-43 48-1 1-55-36-121-83zM20400 11350c-476-14-893-62-1170-134-158-41-160-45-25-45 153-1 719 15 1215 34 212 8 579 19 815 25 237 6 450 12 475 13l45 2-30 17c-70 38-347 73-645 83-360 11-441 12-680 5zM5162 11198c-19-60-32-111-30-113 6-6 192-65 205-65 7 0 24 18 37 39l25 39-41 96c-45 105-32 94-138 111-24 3-27-2-58-107zM18617 11228l-78-20 3-60 3-59 69-29c38-17 71-28 72-27 5 5 17 217 13 216-2-1-39-10-82-21zM16872 11059c-18-44-32-87-32-95 0-9 37-58 82-110l82-94h56c96 0 96 1 156 128l54 115-22 54c-12 29-24 53-27 53s-67 7-141 15-144 15-156 15c-17 0-27-15-52-81zM20630 10744c-232-13-446-27-655-44-132-11-325-26-428-35-103-8-346-22-540-30-542-23-623-35-1387-209-227-52-377-76-535-85-140-8-165-7-165 10 0 5-4 9-10 9-21 0-8-63 27-135 30-60 42-75 60-75 16 0 21 4 17 15-5 11 1 15 22 15 16 0 106 12 199 26 473 70 428 68 1575 99 587 16 558 12 940 105 344 83 400 92 585 95 88 1 176 8 195 14 163 54 952 15 1610-79 429-61 577-74 750-67 153 7 215 17 350 55l95 27-55 6c-30 4-87 7-127 8-114 2-363 36-843 117-638 108-727 122-900 139-147 15-641 27-780 19z" />
    <path
      d="M5714 10585c4-11-2-15-27-15-69 0-390-21-557-35-232-20-431-46-806-105-661-104-916-131-1249-132-271-1-463 19-644 67l-54 14 44-45c78-81 97-86 323-98 132-6 277-6 436 1 150 6 285 6 366 0 265-19 516-2 1102 73 485 63 577 71 874 77 251 5 278 4 284-11 3-9 10-16 15-16 20 0 7 60-33 148-32 68-47 92-61 92-13 0-17-5-13-15zM18285 10150l-119-25-13-60c-7-35-9-88-6-129l6-69 66 7c36 3 91 6 122 6h56l13 73c8 49 9 96 3 147l-8 75-120-25zM18518 9892c-26-9-49-20-53-23-3-4-12-43-19-87l-13-81 34-33 33-32 78 19c70 18 79 23 96 56l19 35-57 82c-32 45-61 82-64 81-4 0-28-8-54-17zM9255 9798c-27-18-86-74-129-124-73-84-82-100-104-176-21-73-31-91-87-153-35-39-104-100-154-135-83-59-91-67-91-97 0-33 0-33 49-33 80 0 284 29 470 66 210 42 422 102 676 190 105 37 312 108 460 159l270 92 3 34 3 35-399 21-398 22-234 66c-129 35-246 65-260 65-14-1-47-15-75-32zM1655 9670c-203-4-530-8-725-9-349-1-465-11-298-25 46-4 189-20 318-36 474-59 548-63 990-57 223 3 565 15 760 26 195 12 480 24 633 27 191 5 276 11 274 18-9 27-69 46-172 57-82 9-165 9-344 0-431-22-533-24-621-12-120 16-386 20-815 11zM18959 9244c-37-20-81-53-98-74l-31-38 31-67c17-37 32-66 33-64 2 2 33 39 70 82 65 78 66 80 66 138 0 32-1 59-2 59-2 0-33-17-69-36zM17794 9246c-18-14-69-206-57-215 7-5 122-92 190-143 8-6 26 11 57 55 45 64 46 66 46 143 0 44-3 96-6 116-6 36-8 37-58 42-118 12-157 13-172 2zM9629 8877l-56-21-11-85-12-86 33-32 32-32 81 20c75 19 82 23 98 55l16 35-57 84c-32 46-60 84-63 84s-30-10-61-22zM17520 8837c-19-11-48-35-63-53l-28-32 54-58 53-57 47 27c44 26 97 78 97 96 0 7-90 79-115 91-5 3-26-3-45-14zM10281 8583c-6-21-11-41-11-44s19-20 43-37l43-31 17 29c9 15 17 49 17 74v46h-50c-48 0-49-1-59-37zM10145 8299c-70-38-125-91-124-119 0-8 13-41 27-72l27-57 65 77c60 71 65 81 72 141 4 36 7 65 5 66-1 1-33-15-72-36zM6225 8201c-44-31-80-62-80-67 1-5 4-32 9-60l8-51 60-7c105-11 104-11 117 37 6 23 15 63 20 89 8 45 6 50-23 82l-31 35-80-58zM10487 8175c-42-47-77-92-77-99 0-27 61-133 97-169l39-37 92 75c101 83 98 75 53 162-18 36-106 145-120 151-4 1-42-36-84-83zM18525 8035c-44-31-81-60-83-65s2-34 8-63l11-54 76-7c42-4 79-3 83 1 12 13 29 74 35 128 5 45 3 54-22 83l-28 32-80-55zM8878 7963l-46-16-13-84-12-84 35-35 35-36 80 22c71 20 82 26 95 54 15 31 15 32-41 113-31 45-63 82-71 82-8-1-36-8-62-16zM12403 7859c-6-8-17-40-24-73-14-65-21-54 78-126l42-31 32 43c28 40 30 48 27 110-2 37-6 70-9 73-4 3-35 8-70 11-48 5-67 3-76-7zM5788 7817l-78-19v-123l67-27c37-15 69-26 71-24 3 4 21 210 18 212 0 0-36-8-78-19zM0 7586v-246h156c144 0 175 4 417 49 260 49 265 49 777 81l515 33 287 100c158 56 287 102 285 103-1 0-200-6-442-16l-440-17-451 48c-248 26-578 59-735 73-156 14-303 28-326 32l-43 5v-245zM17807 7572c-26-26-47-52-47-58 0-5 12-27 26-47 14-21 24-41 21-43-8-9-302 35-305 45-2 6-8 11-13 11-12 0-12-74 0-120 5-19 12-47 15-62 7-29 36-39 36-13 0 8 1 16 3 17 1 1 189 4 417 8l415 5-190 37c-104 21-215 42-245 46l-55 9 50 8c28 4 53 9 56 11s2 26-4 54c-8 43-17 56-64 95-31 25-58 45-62 45s-28-22-54-48zM6393 7526c-40-29-75-55-78-57-3-3 0-31 6-62 13-62 6-58 122-71 45-5 48-4 58 22 6 15 16 57 24 94l12 67-31 30c-18 17-34 31-36 30-3 0-38-24-77-53zM10530 7538c-19-5-52-14-73-19l-38-10 3-61 3-62 67-27 67-27 5 51c10 95 13 167 7 166-3 0-22-5-41-11zM21990 7375l-285-33-315 9c-329 10-659 2-1105-26-126-8-347-17-490-21-143-3-271-8-285-11-14-4 153-20 370-37 381-30 407-31 732-23l337 8 388-50 388-51 275 50 275 51 510-17 510-16 157 83c86 46 156 84 155 85-1 0-202-3-446-8-442-9-444-9-646 16-111 14-211 25-221 25-11-1-147-16-304-34zM12840 7315c0-17-7-19-180-40-341-41-708-107-1015-183l-190-47 110-3c119-4 768 13 1090 28 132 7 201 6 203 0s8-10 14-10c7 0 8 19 3 58-4 31-6 92-5 135 1 64-1 77-14 77-9 0-16-7-16-15zM23493 7154l-643-13-542-100-543-100-2065-5c-1136-3-2093-8-2127-12-54-5-63-3-63 10 0 9-7 16-15 16-26 0-28-67-8-273 19-198 19-205 1-362-20-178-17-355 8-355 7 0 14 7 16 16 4 20 63-26 283-221 131-117 170-159 243-259l87-120 117-34 117-33 198 82 198 82 343 239 342 239 508-304 507-304 469 34c258 18 471 31 473 29 3-2 19-70 37-150 18-81 35-148 37-150 2-1 139-40 304-85l300-83 200-199c110-109 204-199 209-199 4 0 89 59 187 131l180 131 37-28c20-16 89-69 152-118l115-90 350 58c192 32 375 63 406 68l56 10 12 136c7 75 15 159 18 186l6 49 108-7 109-7v2111l-42-1c-24-1-332-8-685-15zM2926 7025c-74-19-85-29-26-23 76 8 325-10 448-32 65-12 194-38 287-60 229-51 332-68 510-80 238-16 752-30 1095-29l315 1-145 34c-80 18-212 46-295 61-145 26-163 27-530 28-230 1-417 6-475 14-585 74-748 91-950 96-136 4-188 1-234-10zM5818 6884c-56-40-78-62-78-77 0-28 19-95 28-100 4-3 39-7 79-11l71-7 15 48c31 97 31 129 2 168-15 19-30 35-34 34-3 0-41-25-83-55zM0 6406v-443l211-225 210-225 257-51 257-51 167 16 166 17 134-50 133-49 303-370c167-204 306-370 310-370s134 67 289 149l282 149 101 169c59 98 107 167 113 165 7-3 151-71 322-152l310-147 372 33 372 33 518-17c285-10 588-25 673-34 145-15 165-15 308 2l153 17 52-43c29-24 75-62 102-85l50-42 140 153c101 111 145 152 158 148 13-3 17 2 17 20s-18 37-80 81c-91 65-401 390-438 459-18 35-28 90-54 323l-32 281 57 164c51 147 69 229 51 229-4 0-12-7-18-15-9-12-99-16-546-26-521-12-548-12-1050 13l-515 25-180 90-180 90-1747 6-1748 5v-442zM12930 6827c0-22-40-23-1294-53-1031-25-1109-26-1118-11-15 28-28 19-28-19 0-20 10-92 22-160 18-105 24-124 40-124 10 0 18 7 18 15s2 15 4 15 68-22 146-50l142-50 518 65c285 36 530 65 543 65 19 0 63-44 198-195 95-107 174-195 176-195s73 23 158 50c85 28 161 50 167 50 16 0 378-372 371-382-2-5 5-8 17-8 24 0 40 34 40 88 0 21-18 82-42 139l-41 103 21 97c28 124 28 253 2 393-10 58-20 121-22 140-2 24-9 36-20 38s-18-3-18-11zM9075 6721c-7-7-363-19-1010-35-550-14-1073-28-1162-31-147-6-163-5-163 10 0 10-7 15-17 13-19-4-45-103-41-157 3-32 7-35 55-51 51-17 121-58 144-86 8-9 34-14 80-14 82 0 105-8 189-65 42-29 114-63 203-95l137-50h523l34 26c58 44 95 54 175 48 70-6 80-4 243 51 160 54 172 60 209 102 44 51 96 80 158 89 27 4 71 25 119 55 90 58 142 123 137 170-2 21-6 27-13 20zM16080 5117c0-28 24-64 140-213 133-171 145-191 263-424 68-135 151-311 183-392 80-200 72-200 257 13l137 158v269l-107 69c-60 39-157 98-218 133-92 53-132 85-251 200-138 133-143 137-243 178-56 23-115 42-131 42-27 0-30-3-30-33zM17514 4009c-3-6-14-42-24-79l-17-68 73-56c40-31 75-56 78-56s19 20 36 44c28 41 30 51 30 129v84l-61 7c-86 9-107 8-115-5z" />
  </g>
  <g fill="#FFF8B0">
    <path
      d="M8085 13426c-305-70-398-96-610-170-242-84-254-89-367-166l-116-80-319-81c-175-45-334-90-354-100-62-31-267-288-392-490-317-513-410-1036-277-1553 95-368 319-746 625-1051 394-394 957-679 1598-809 390-79 811-79 1252-1 268 47 602 140 905 251 85 31 294 103 464 160l309 104 109-60c99-55 117-61 230-80 68-12 215-40 328-63l204-42 116-157c113-155 119-161 331-341l215-184 33-129c43-169 52-187 157-332 88-121 91-125 113-225 52-236 56-247 138-348 73-92 75-95 69-139-21-172-22-166 32-326 31-91 54-176 58-219 3-38 15-115 25-170 24-128 24-213-1-320-29-125-26-160 21-273l40-97-21-71c-18-62-20-82-12-167 12-124-7-223-69-369-37-86-55-115-110-173-53-56-80-98-137-210-78-156-116-199-272-315-120-89-144-113-211-212-54-80-62-87-87-83-15 3-112 14-217 26-104 11-195 24-201 27-6 4-117 83-247 176l-235 169-22 61c-44 121-78 182-138 253l-62 71-25 121c-13 66-32 136-41 153-9 18-55 78-102 133s-88 109-93 120-74 389-154 840c-116 651-151 828-168 857-26 43-417 454-462 485-54 37-106 45-198 32-45-6-98-18-117-27-23-10-69-15-137-16-96-1-103-3-144-31-50-35-84-82-99-134-6-21-10-179-10-375v-339l-116-163c-109-152-122-167-193-213-47-30-92-51-119-55-62-9-114-38-158-89-37-42-49-48-205-101-153-51-172-55-227-50-81 9-122 0-181-41l-51-35h-460l-137 50c-89 32-161 66-203 95-83 57-107 65-186 65-60 0-70 3-107 34-50 40-90 61-134 71-18 3-35 10-38 15s2 39 11 77c10 41 14 87 10 117-6 54-45 129-80 151-15 10-26 29-30 55-13 85-110 163-254 206-104 31-220-17-269-109-8-16-68-182-134-368-99-283-119-348-119-396 0-32 14-175 30-318 25-212 34-268 53-302 12-24 97-123 189-221 160-172 176-186 400-349 138-100 293-203 381-252 145-82 177-108 177-143 0-21-33-23-147-8-69 9-82 7-273-40l-200-50-183 22c-233 27-245 33-359 183-106 139-139 159-248 151-41-3-118-6-171-8-86-3-100-6-145-33-62-39-103-104-111-176-5-49 3-77 91-325 84-241 105-288 176-410 45-77 93-151 108-166 14-16 73-63 131-105 131-97 154-103 372-103h167l106-44c92-39 130-63 286-183 134-104 231-168 387-257 183-105 348-217 493-337 44-35 47-42 69-136 43-182 33-169 316-403 231-192 254-214 275-262 12-29 76-162 141-295l118-242 108-68c91-57 134-94 273-236l165-168 186-72 186-72 171-181c112-118 184-186 209-197 21-10 94-28 162-42 117-24 130-29 219-86 77-49 124-70 261-115l166-55 205-14c170-11 247-22 450-63 219-45 268-52 465-62 216-12 224-12 410 14 105 14 291 48 415 75s340 68 480 92l255 42 340 134c187 73 355 140 374 149 53 24 405 230 626 366 190 118 203 128 258 199l57 75 227 125 227 124 101 105c153 158 181 190 334 380 110 137 158 207 222 323l82 149 101 68c56 37 107 78 115 91s48 86 88 162 142 254 226 395c273 459 251 413 286 605l30 168 137 156c75 86 143 172 152 192 11 26 17 90 22 241l6 205 46 110 46 110 7 194 7 193 65 177 66 176-2 244c-1 135-4 248-7 253-3 4 4 90 16 190l20 183-19 195c-19 193-19 196 0 355 11 88 20 185 20 215s-22 159-49 285l-50 230-6 257-6 257-86 248c-78 225-90 270-130 486-29 158-64 306-103 440l-60 202-9 238-10 238-117 242c-140 288-436 882-545 1092-74 142-79 157-101 280-23 127-25 134-135 355l-111 226-137 129c-113 108-158 159-259 299-71 99-137 179-157 192-77 51-177 45-380-20-64-21-107-26-290-35-204-9-231-13-540-75l-325-65-506-10-507-10-383 34-384 33-350 76c-654 140-894 181-1285 222l-354 36-438 148-438 149-382 45c-211 25-401 46-423 45-22 0-202-38-400-83zm1308-293c97-31 177-61 177-65 0-5-34-168-75-363-71-336-75-363-81-527l-7-173-82-165c-80-163-81-167-99-295l-18-130 57-165c31-91 78-240 105-332l49-166 127-161c70-89 131-161 137-161 5 0 3 10-5 23-107 165-144 240-232 465l-95 244 6 276 6 277 52 70c67 91 63 82 80 166 10 47 19 173 24 358l9 286 83 215c45 118 83 216 84 218 2 2 96-29 210-67l207-71 381-40c209-22 382-41 384-43 1-2-11-30-29-62-100-185-186-501-289-1055-30-164-31-179-21-261 17-124 99-449 199-784 48-159 88-292 90-294s6-2 9 1c8 9-34 628-47 673-6 22-27 92-47 155-35 113-36 117-36 290-1 329 46 536 246 1085 44 121 81 221 82 222 4 4 494-95 781-157 177-39 331-67 419-75 76-8 140-16 143-19 3-2-115-199-260-438l-265-433-91-348c-50-191-91-358-91-370 0-37 105-537 113-537 4 0 7 28 8 63 0 34 4 202 8 372l7 310 113 350 113 350 240 320c133 176 248 327 257 337 15 15 28 15 161 2 80-7 259-13 398-14 138 0 252-2 252-5s-49-103-109-223l-109-217-118-91-119-91-108-203c-95-179-110-215-128-298-10-52-16-98-13-101 4-3 9-1 11 4 2 6 48 92 101 192l97 182 235 248c265 279 454 483 518 559l43 51 172 6c158 5 196 10 467 65 162 33 455 83 650 111 195 29 367 54 382 57 24 5 34-6 137-150 89-124 137-180 245-282 83-78 141-142 152-166 9-21 15-40 13-42-17-14-345-102-474-126-88-17-169-34-180-39s-108-69-215-142l-195-133-286-117c-157-64-296-122-309-129-12-7-70-50-127-95-95-76-113-96-189-209-46-69-82-126-78-126 3 0 54 38 112 84 59 45 198 145 309 220 183 124 230 150 531 294l329 159 249 43c180 31 298 58 427 96 97 30 179 54 182 54s20-30 39-67c24-49 41-107 60-208 26-132 31-148 99-275 74-140 317-627 317-635 0-3-33-5-73-5-55 0-95-7-163-30-73-25-125-34-299-50-254-24-204-14-477-93l-228-66-93-74c-87-69-102-77-225-118-72-24-130-45-128-46 2-2 75 6 162 18 156 21 161 22 254 74l95 52 130 7c258 14 371 28 513 62l144 34 260-12 259-12 104-214c58-118 105-226 105-238 0-18-6-24-21-24-12 0-121-5-243-11-201-10-261-17-661-85l-440-75-270-91-270-92-250-160-250-160-385-143c-212-79-372-141-357-138s195 46 400 96l372 91 265 135 264 135 401 93c220 52 526 124 680 160l280 67 225-12c124-6 234-13 246-15 19-4 21-14 27-111 4-58 14-130 23-161 9-30 12-59 8-63-17-16-242-83-404-120-149-35-183-39-350-45-173-5-201-9-429-58l-243-52 233-27c204-24 258-26 424-21 171 5 207 9 365 44 96 21 239 58 318 82l142 44 20-65c11-36 40-173 64-306 41-219 52-263 130-488l86-247v-231c0-135 5-249 11-275 6-24 9-48 8-53-2-6-121 53-264 130l-260 140-155-17-156-17-148 45c-126 39-163 56-251 111-99 64-105 66-166 66-35 0-121 10-191 22l-127 21-196-27c-128-18-266-46-399-81-181-47-228-64-444-160-133-60-241-110-239-111 2-2 100 26 219 61l217 65 263 25c145 14 332 36 416 49l153 23 117-22c80-15 162-40 262-79 80-32 226-82 324-113l180-55 138 21 139 21 307-159 307-158 22-103 22-102-22-190-22-191 18-186c18-179 18-192 2-359l-18-174-71 7-71 7-243 175c-134 97-258 179-275 184-18 5-165 25-327 45-162 19-405 53-540 74-495 79-645 104-650 110-3 3-84 27-180 54l-175 48-150-7c-82-3-217-12-300-20-82-8-202-17-265-21l-115-7-133-70c-74-38-175-82-225-98-105-32-99-33 98-18 142 10 147 11 267 63 102 44 144 56 246 71l123 19 115-24c113-23 117-23 372-10l258 12 199-81c182-75 224-88 475-145 197-46 353-75 549-101l273-38 218-176c171-137 254-197 379-270l161-93v-97c0-138 0-138-125-104l-99 28-76 102c-63 87-89 113-168 168-51 35-100 68-110 73-19 10-119 19-367 32-133 7-188 14-255 34-46 14-85 24-86 23s73-45 164-99c147-84 183-101 297-134 117-33 137-43 203-93 241-185 280-209 412-252 69-23 128-44 132-48s-8-48-27-99l-35-92v-345l-52-130c-28-71-52-131-53-133-8-11-94 43-171 108-51 43-128 97-171 121-43 23-125 77-183 120-142 104-409 261-555 326-66 29-125 53-131 53-9 0-9-11-3-37 5-21 9-41 9-45s-98 55-218 131c-217 138-219 139-547 274l-330 135-225 12c-140 8-302 10-430 5-182-6-580 5-756 21-57 5-61 7-57 28 3 13-16 74-44 142l-49 119 22 90c29 114 30 220 4 355-11 58-25 148-31 200-7 66-24 134-56 225l-45 130 11 111c17 174 22 158-77 280l-89 109-38 170-38 170-102 141-102 140-43 170c-43 165-45 170-85 204l-41 35 85 190c85 190 118 246 573 955 16 25 225 171 308 216l76 41 227 12 227 12 68 43c37 24 110 65 162 91s140 82 195 124c55 43 138 104 185 136 159 110 361 257 357 261-2 2-84-29-183-68-156-63-201-86-349-183-93-61-231-148-305-192l-135-82-138 6c-76 3-140 10-143 15-3 4 119 134 272 288s275 280 271 280c-3 0-129-83-280-185l-275-185-178-186c-127-133-216-215-307-285l-129-99-104-160c-165-254-249-395-414-693l-153-278-21 19c-12 10-79 68-150 128-143 121-252 252-241 289 4 11 20 74 37 140 25 98 38 130 71 175 37 49 43 66 64 180 14 73 27 203 33 314l11 189 50 116c42 95 76 151 191 310 175 242 241 341 233 349-4 4-72-60-151-142l-144-149-95-178c-53-99-125-249-160-335-58-142-65-166-80-287-25-204-70-387-118-484l-42-83-30 35c-30 35-32 36-236 76-114 23-213 45-219 49-10 6-9 54 5 233 17 222 17 230-5 499-11 150-34 351-50 446l-29 174 34 186c19 103 37 197 40 210 3 12 1 22-3 22-5 0-30-57-55-127-46-126-47-132-72-388l-25-260 43-180 43-181-14-304c-8-168-15-306-16-307-2-2-41 2-87 9-75 10-98 19-217 85-72 40-143 73-157 73s-72 25-129 55l-103 55-96 250c-70 180-121 334-182 552l-86 303 11 205c6 113 17 351 25 530l13 325 86 269c73 227 92 299 73 275-2-2-61-127-131-277l-127-272-15-288c-12-212-14-378-9-637l7-350 44-215c40-194 53-237 131-438 47-122 84-224 82-226s-139 2-304 9l-300 12-275 77c-151 42-353 100-448 127l-173 50-234-16c-175-11-257-13-331-5l-97 10-212 130-212 130-184 220-184 220-78 232c-43 128-102 324-132 436l-55 202v270c0 149-4 270-8 270s-20-87-35-192l-28-193 20-305 19-305 89-192 89-192 214-271 215-270 147-94 147-93-122-6c-67-4-139-11-161-16-37-9-44-6-260 121-121 72-266 161-321 198-55 36-148 94-207 129l-107 62-61 147c-34 81-100 216-146 301l-85 154-44 216c-38 189-45 250-60 483l-17 267 82 273 83 274 221 55 221 54 125 83c102 69 148 92 247 127l121 44-129-215-129-215v-584l96-293c58-173 101-291 108-289 6 2 17 63 24 147l14 144-31 107c-17 60-49 225-72 368l-41 260 113 257c105 240 111 258 101 291-8 25-7 35 1 38 7 3 50 18 96 35 87 32 350 94 359 86 6-7-50-169-145-413l-74-192-9-138c-9-130-8-149 20-313 16-96 34-227 40-290 12-122 35-193 138-425 40-91 179-374 188-384 17-18 12 37-21 216l-37 208-59 102-59 102v134c0 116-7 169-50 410l-49 278 89 333c50 183 90 346 90 363v30l178 39 177 40 360-43 360-42 178-58zm-2933-699-78-217-7-176c-10-236 19-524 72-711 49-177 199-527 281-657 59-92 83-119 202-224 177-156 305-247 519-371 97-56 180-104 184-108s-44-22-107-40c-64-19-114-36-111-38 2-3 116 3 252 13 187 14 275 16 356 9l108-9-158-86c-157-86-160-87-378-142l-220-56-273-17-273-17-56 39c-246 169-472 400-639 655-62 93-190 336-182 344 6 7 207-184 299-283l85-94 290-120c305-127 325-132 509-142l110-6-159 55c-151 52-178 65-486 245l-327 191-143 207c-112 161-161 244-223 371l-80 165 6 125c9 221 67 431 186 676 95 194 218 376 406 600 9 10 70 31 101 34 6 1-24-96-66-215zm2578-2553c73-22 136-41 139-44 6-7-126-163-196-232l-51-49v-143l-102-80c-57-44-159-115-228-158l-125-77-125 6c-325 18-650 87-960 205-126 49-353 151-347 157 7 7 391 86 577 119 258 45 344 78 552 213l158 101h110c82 0 108-4 103-12-28-47-92-129-180-232l-102-120-165-74c-91-41-164-77-161-80 4-3 38-8 78-12 71-7 75-6 237 53 91 34 170 65 176 70 6 4 17 34 24 66l12 59 121 73c110 65 128 80 182 151 57 75 62 78 100 78 22 1 100-17 173-38zm536-151 219-61 401-23c221-12 394-26 386-29-8-4-132-47-275-96s-345-118-450-155c-254-88-466-148-676-190-172-35-428-71-449-64-6 2 30 32 81 68 50 35 119 96 154 135 56 62 66 80 87 153 22 76 31 92 104 176 74 86 165 158 189 150 5-2 109-31 229-64zm412-2287c99-104 188-199 196-213 9-15 75-359 164-860l148-835 106-125 106-125 23-125c13-69 29-134 36-145s42-56 79-100c56-67 73-98 112-200 26-66 51-126 57-132 7-10 323-240 389-284 5-3-7-125-27-280l-37-274-149-234-149-235-227-126c-125-69-229-132-230-140-8-46 8-43 286 46l272 88 174 273 175 273 15 166c8 92 16 168 18 170s34-76 71-175l68-179-7-278-8-279-95-272-95-273-212-252-213-253-182-140-182-139-360-137-360-136 69-7c66-7 78-4 367 84 165 50 304 94 310 97 6 4 120 87 254 186l243 179 198 241c108 133 205 253 214 267 8 14 57 135 107 270l91 245-7 306c-6 272-5 308 9 315 13 8 2 42-79 228-51 121-92 221-90 223 2 3 469-47 472-51 1 0 33-64 72-142 53-105 94-171 166-262l95-122 17-152c16-146 19-157 59-233l42-80-6-105-6-105 51-155c40-123 55-189 74-322 13-93 26-168 29-168 4 0 23 55 43 121l36 122-43 151c-34 119-45 175-50 266-7 111-10 121-72 278l-66 163 5 112 5 112-39 94c-21 52-37 95-35 97s73-55 159-126c114-94 159-138 167-162 7-18 55-156 107-306l95-273 10-332 11-332-62-125-61-125-78-380c-43-209-77-382-75-384 3-4 31 14 67 42 12 10 46 119 106 343 74 277 100 355 160 494l71 164v709l-66 171c-57 149-80 194-177 346-106 164-123 185-297 363-102 104-176 187-165 183 11-3 70-19 132-35 159-43 425-181 479-249 58-73 137-152 152-152 8 0-7 39-44 110l-57 110-106 67c-144 91-312 213-394 285-73 65-105 77-200 78h-57l37 56c26 39 65 76 129 123 50 36 131 103 179 146 84 77 90 85 162 230 63 128 84 160 143 220 64 65 72 79 128 215 76 184 97 290 88 441-6 87-4 114 10 148 9 22 19 41 23 41s95-17 202-39l194-38 415-6 415-6 234-48 234-47 281-166c351-207 597-372 795-533l155-126 180-318c111-197 212-392 266-512l87-193-19-107c-10-58-23-118-28-133s-89-162-187-325c-97-164-191-324-209-357-38-70-30-88-84 189-23 116-69 314-102 440-59 223-63 235-151 404-89 172-91 175-266 375-97 110-230 265-295 344l-118 142-196 100c-194 98-201 101-398 149l-200 50-89-28c-59-18-82-29-69-33 10-3 136-36 279-73l260-69 190-119 190-119 223-221 224-222 65-129c36-71 100-209 142-305 72-163 79-185 95-301 10-69 33-186 51-260 63-251 125-522 125-541 0-13-34-42-109-91l-108-73-84-155c-67-123-112-190-223-330-127-159-370-430-386-430-3 0-18 40-33 89l-27 90v841l-39 87c-21 49-49 130-61 181-21 88-46 133-137 251-2 2-5 2-8-1-6-5 42-343 79-553 52-305 52-304 13-443l-36-123 24-141 24-140-20-132c-11-72-21-136-23-141-2-6-56-39-119-73-109-59-119-67-173-140-61-83-40-67-413-295l-113-69-49 48c-27 27-49 53-49 59 0 19 120 319 185 461l65 141-16 109c-10 75-13 139-9 206 7 92 6 100-25 185-35 95-37 99-45 91-11-11-45-236-52-338-6-103-7-107-76-255-75-163-122-314-137-441-8-65-21-105-60-189-33-71-54-132-61-179-7-39-17-76-23-82s-150-66-321-132l-310-122-245-40c-135-22-346-63-470-89-232-51-319-67-310-58 8 7 401 179 555 241l140 57 71 92 71 92 46 267c51 289 51 288 39 288s-51-170-62-267l-9-83-101-97c-97-93-111-103-308-208-114-61-295-150-402-199-107-48-250-116-316-151l-122-64-138 10c-95 6-216 25-384 58-199 41-280 52-430 62-176 11-192 13-322 55-120 39-258 106-258 125 0 10 147 45 414 100l249 51 109 90 108 90 183 44c100 24 192 46 205 49 12 3 92 69 178 147 141 128 159 148 194 217 21 42 77 148 125 236 81 148 91 173 130 322 35 131 53 179 94 252l51 90-27 101c-15 55-30 100-34 100-3 0-29-49-57-109-39-83-59-145-85-258-31-140-36-153-79-209-31-40-62-101-98-194-65-165-129-255-318-443l-128-128-309-128c-171-71-382-162-471-204-146-69-177-79-347-117l-187-42-129 25-129 24-103 109c-57 60-140 145-184 189l-80 81-180 67-181 68-134 145c-117 125-150 154-248 217l-113 72-69 144c-38 80-68 146-66 148 1 2 86-15 187-36 166-36 203-40 379-46 163-5 240-2 465 18l271 24 204 133c113 73 277 185 366 249 141 102 165 123 196 176 20 33 35 61 33 63s-106-62-233-142c-126-80-330-198-453-263l-224-117-323-18-322-19-307 56c-169 31-308 57-309 58s-17 35-36 75l-33 74-250 207-250 207-23 88c-13 48-21 90-19 93 3 2 153-12 333-31 238-26 373-36 490-36 153 0 172 2 370 45 115 24 315 75 444 113l235 69 223 209c222 209 223 209 349 394l127 185 44 180c24 99 67 295 96 435l52 255-29 200c-27 192-30 201-64 247-19 26-38 48-42 48-5 0-11-109-15-242-7-240-8-246-58-488-27-135-67-317-88-406-36-149-45-171-122-317l-83-157-226-199-226-199-239-70c-499-147-554-160-778-186l-209-25-306 40-305 41-191 146c-145 112-243 177-415 277s-268 164-405 270c-173 134-186 142-330 202l-149 63h-366l-86 64c-81 60-90 70-156 182-58 98-85 161-154 356-46 130-84 238-84 240 0 3 14 3 30 0 21-3 47-22 85-64 29-33 58-57 64-53 6 3 11 23 12 43 3 95 8 94 93-20 75-101 83-108 170-155l91-50 225-26 225-26 135 34 135 34 235-74c212-66 266-79 555-129 176-30 421-67 545-81s272-32 330-40l105-15 195 34c107 19 285 47 395 61l199 27 171 153c93 84 177 161 186 171 33 37 255 548 287 659 49 170 76 455 62 657-5 84-9 308-7 498l2 345-68 225c-38 124-78 239-90 255-11 17-54 70-96 119l-75 89 25 20c13 11 23 22 23 26-1 3-5 54-8 113l-7 107 33 4c18 2 40 5 49 5 8 1 96-82 195-185zm-481 131c9-4 41-57 72-118 30-61 59-113 63-116s51-157 105-343l97-337 7-383 7-382-48-405-49-405-106-235c-58-129-108-237-111-240-2-3-2 11 2 31l6 36-47 6c-49 6-181-27-247-60l-28-15 43-44c34-34 52-45 88-50 25-4 50-9 55-12s-9-21-32-41c-22-20-65-57-94-83l-54-47-184-25c-102-14-264-40-361-57l-175-31-645 76c-354 42-666 83-694 91l-50 14 82-6 82-6 5 34c4 19 12 86 19 149l13 115-35 98-34 98-189 107c-124 70-263 161-406 265-201 147-228 170-369 322l-153 163-29 260-30 260 109 307c60 169 111 314 114 321 4 11 12 11 43-2 21-9 41-19 45-22 4-4 12-54 17-111 6-58 13-106 16-109 2-2 21 6 41 19l37 23-6-25c-28-123-30-139-18-181 34-115 145-229 207-214 22 6 38-2 86-40 72-57 138-79 196-66 39 9 44 7 100-33 42-30 106-60 226-104l168-61h311l312 1 44 39c39 34 47 37 70 28 43-16 131 0 277 53 76 27 169 54 206 61l68 11 37 58c39 59 54 69 110 69 23 0 64 22 150 80l119 80 152 214 152 214v356c0 209 4 356 9 356s17-3 26-6zm6743-2511c54-22 85-47 205-163 120-115 159-147 252-200 61-35 158-94 218-133l107-69v-209l-138-157-138-158-59 146c-32 80-114 255-182 390-118 233-130 253-263 424-77 99-140 181-140 183s17-4 38-13c20-8 66-27 100-41z" />
    <path
      d="M14935 7660c-183-17-199-20-410-85-210-64-228-67-390-81-149-12-194-20-363-66-234-64-234-64 198-49l305 11 240 80c132 44 350 109 485 144 280 74 275 77-65 46zM13605 5431c50-15 135-44 191-64 110-40 104-39 691-97 397-38 385-39 293 6-165 80-436 129-830 149-69 4-187 13-264 21-182 18-187 18-81-15zM12725 4535c17-8 179-79 360-159l330-144 258-217 258-216 64-130c36-71 83-173 104-227 21-53 77-167 124-254 105-192 154-340 192-575 26-160 26-163 12-321l-15-159 27-133 27-133-22-241c-20-219-22-258-10-245 2 2 45 110 96 239l93 235-17 135c-9 75-16 207-16 297 0 184-9 243-92 598l-52 220-108 130-108 130-40 125c-24 77-66 176-107 255l-68 130-145 118c-80 65-229 178-332 252l-187 134-319 85c-175 47-323 86-328 85-5 0 5-7 21-14zM10990 4517c0-1-27-130-59-287-55-262-66-300-132-470l-72-184-187-221c-103-121-243-279-313-351l-126-131-320-153c-176-85-319-155-318-156 2-2 59 5 127 16 111 16 145 27 300 92l176 73 213 174c178 146 243 208 399 376l187 202 82 214 82 214 21 274 20 275-27 23c-23 18-53 30-53 20zM15021 4243c49-76 126-182 170-235 56-68 94-128 126-195 37-79 61-114 122-178 55-57 87-101 112-155 29-62 50-88 113-144 42-38 78-67 81-64 2 2-18 44-45 93-30 52-65 137-87 207-36 116-38 120-110 198-43 46-93 113-119 162-34 62-73 110-152 192-93 93-280 256-296 256-3 0 35-62 85-137zM13090 1335c0-8 5-15 10-15 6 0 10 7 10 15s-4 15-10 15c-5 0-10-7-10-15zM12494 978c-49-51-105-114-124-140-31-41-47-52-135-88-94-39-428-211-421-217 1-2 36 9 77 23s127 34 192 44c66 11 124 23 130 28 194 149 196 152 286 286 106 159 104 156 93 156-4 0-49-42-98-92zM9260 6063c0-38-3-91-6-119l-6-52 60-41c68-46 78-49 86-23 19 67 17 84-16 168-28 72-39 90-70 110-21 13-40 24-43 24s-5-30-5-67zM9503 5843c3-33 0-84-7-119l-13-61 73-46c40-26 76-47 79-47 16 0-11 123-43 200-56 136-99 170-89 73zM7370 5649c31-78 44-99 108-169 59-64 60-65 80-47 14 13 24 42 32 89 7 38 10 70 9 72-2 1-26 11-54 21-27 10-80 33-117 51-37 19-70 34-73 34-2 0 4-23 15-51zM8874 5583c-3-16-10-44-15-63-8-33 3-145 15-158 3-2 35 21 71 53 55 49 68 66 81 112 9 30 13 57 10 60-8 8-85 22-123 23-28 0-34-4-39-27zM8493 5569c-35-11-63-23-63-27s7-31 15-61c12-48 56-111 76-111 10 0 45 112 54 173 8 55 9 54-82 26zM9169 5437c-32-27-69-83-69-102 0-21 209 36 210 57 0 8-89 78-99 78-3-1-22-15-42-33zM8150 5426c-36-19-51-35-70-75l-24-52 64-64c43-44 78-69 109-80 24-8 48-15 53-15 4 0 8 30 8 68 0 52-7 86-33 152-19 47-40 86-48 87s-34-8-59-21zM7220 5295c0-3 14-30 31-60 26-46 41-60 106-95 41-23 76-40 78-38 5 6 47 160 43 162-2 1-42 9-89 19-84 16-169 22-169 12zM9460 5139c-45-18-90-45-112-66l-38-37 27-17c15-10 57-20 97-24 58-6 80-3 121 13 49 20 50 21 47 58-4 43-37 105-55 103-7 0-46-14-87-30zM7866 5030l-37-70 53-25c38-18 70-25 116-25h62v30c0 17-8 42-17 56-17 27-115 104-131 104-5 0-26-32-46-70zM9465 4893c-34-8-75-26-94-42l-34-28 27-18c32-22 116-36 157-28 28 5 29 7 29 69 0 72 5 69-85 47zM7860 4674v-37l44 5c43 5 106 40 106 59 0 5-34 9-75 9h-75v-36zM8001 4474c-46-13-85-25-87-27s1-33 8-68c13-61 15-64 40-62 36 2 89 44 144 111 25 30 43 56 42 57-16 12-78 8-147-11z" />
  </g>
</svg>