<svg xmlns="http://www.w3.org/2000/svg" class="img-fluid" style="transform:none;transform-origin:50% 50%;cursor:move" viewBox="0 0 15580 15480">
  <g style="transform:none">
    <path d="M3490 13229c-1019-1927-966-1826-957-1835 3-4 127 14 274 40 525 91 1104 160 1668 197 452 30 1269 37 1705 15 969-49 1899-173 2829-377 124-27 227-46 230-44 2 3-7 18-21 33s-86 113-160 217c-611 858-1378 1644-2173 2226-678 496-1461 910-2237 1183-119 42-222 76-230 76-7-1-415-762-928-1731zM7865 14699c5-8 79-113 165-234 348-488 715-1061 1025-1600 781-1358 1441-2888 1921-4455 103-335 105-343 114-333 4 4 46 121 93 258 673 1963 814 4025 414 6045l-53 265-99 2c-55 2-775 14-1600 28-825 13-1610 27-1744 31-204 5-242 4-236-7zM12976 10887c-715-2108-1829-4186-3191-5952-175-228-202-265-189-265 46 1 514 91 719 139 506 118 982 273 1455 474 903 384 1763 951 2535 1671 189 176 555 549 555 566 0 4-122 255-271 556-149 302-349 707-444 899-95 193-293 593-440 890s-350 708-451 913c-101 204-185 372-186 372-2 0-43-118-92-263zM5615 10955c-1869-337-3479-1209-4827-2613l-187-195 76-151c42-83 156-313 253-511 297-603 543-1100 869-1760 172-346 376-759 453-918 78-158 145-284 149-280 4 5 55 145 112 313 725 2112 1805 4115 3189 5917 98 127 178 234 178 237 0 8 0 8-265-39zM4278 7312c-618-1827-785-3628-508-5470 40-265 143-808 155-820 7-7 3677-71 3685-65 2 2 0 10-5 17-6 8-87 121-181 252-1142 1595-2087 3478-2769 5519-109 326-182 556-237 742-18 62-35 113-38 113s-49-129-102-288zM6240 4435c0-3 69-101 153-217 1188-1655 2672-2809 4411-3429 138-48 251-87 252-86 9 9 1884 3559 1884 3567 0 13 30 17-293-39-542-96-1221-174-1782-206-439-26-1130-31-1525-11-896 45-1664 140-2590 320-41 8-169 35-283 60-214 47-227 50-227 41z"/>
  </g>
</svg>
