<svg id="root" xmlns="http://www.w3.org/2000/svg" width="768" height="441" viewBox="0 0 25060 14440">
  <path d="M0 7220 l0 -7220 12530 0 c8347 0 12530 3 12530 10 0 7 -4180 10 -12520 10 l-12520 0 0 7200 0 7200 12520 0 c8340 0 12520 3 12520 10 0 7 -4183 10 -12530 10 l-12530 0 0 -7220z"/>
  <path d="M13010 12884 c-91 -86 -461 -452 -822 -813 l-658 -656 133 -133 c176 -177 178 -178 419 -191 103 -5 196 -15 207 -20 29 -16 48 -52 204 -377 79 -165 162 -328 185 -363 23 -35 49 -87 58 -115 29 -90 101 -260 138 -327 l36 -64 -276 -276 -275 -275 218 -215 c235 -230 322 -303 384 -319 21 -5 57 -15 79 -20 42 -11 47 -22 64 -122 4 -20 27 -65 53 -100 57 -78 273 -295 332 -334 43 -28 49 -29 165 -29 144 0 177 -13 214 -85 59 -114 -33 -260 -163 -260 -22 0 -50 -6 -61 -14 -19 -14 -19 -15 0 -50 10 -19 77 -97 148 -173 72 -76 144 -161 160 -190 21 -37 70 -87 171 -175 123 -106 344 -308 485 -442 l42 -40 138 135 c75 74 196 189 267 255 296 271 1521 1503 1570 1578 13 19 13 28 4 50 -7 14 -15 26 -19 26 -14 0 -30 54 -39 129 -6 49 -17 84 -31 103 -13 18 -25 56 -31 96 -6 42 -19 80 -34 102 -13 19 -31 65 -39 102 -17 73 -58 160 -198 418 -97 178 -136 235 -228 333 l-59 63 77 75 c108 103 116 124 117 284 0 171 -6 197 -60 251 -51 50 -70 54 -119 20 -21 -14 -58 -26 -93 -31 -32 -4 -83 -17 -113 -30 -31 -13 -143 -51 -250 -84 -107 -34 -222 -72 -255 -86 -78 -32 -184 -34 -279 -5 -87 27 -207 109 -255 174 -44 58 -495 977 -812 1656 -66 140 -131 272 -145 293 -27 42 -78 77 -110 77 -25 0 -129 76 -239 174 -130 117 -205 176 -223 176 -10 0 -92 -70 -182 -156z m2340 -3305 c72 -15 174 -95 346 -270 152 -156 203 -233 189 -286 -11 -44 -24 -53 -80 -53 -45 0 -62 6 -115 42 -119 79 -428 397 -475 489 -20 38 -11 67 23 75 15 3 32 7 37 9 17 6 23 5 75 -6z m-2163 -251 c114 -118 98 -154 -74 -168 -95 -8 -115 -13 -176 -46 -36 -20 -72 -11 -93 21 -15 23 -15 27 0 50 9 13 40 36 69 49 28 14 79 52 112 86 76 77 93 78 162 8z m1826 -52 c18 -7 67 -45 110 -83 78 -70 87 -76 162 -109 51 -23 200 -170 220 -217 31 -74 9 -171 -40 -183 -51 -13 -100 13 -198 104 -53 49 -120 101 -153 117 -63 32 -230 189 -258 244 -16 29 -16 34 0 66 18 38 67 75 102 75 12 0 37 -6 55 -14z m-345 -330 c15 -8 36 -24 47 -36 53 -60 189 -169 218 -176 40 -8 169 -135 221 -216 45 -71 48 -117 10 -147 -60 -47 -136 -16 -299 121 -37 31 -91 68 -119 81 -32 15 -74 49 -111 88 -111 120 -136 182 -97 242 38 56 78 70 130 43z"/>
  <path d="M7210 12668 c0 -40 206 -466 275 -568 21 -31 40 -74 44 -100 6 -33 19 -56 47 -85 21 -23 63 -87 92 -144 30 -56 97 -173 149 -259 224 -366 253 -417 263 -448 8 -23 20 -36 36 -40 15 -4 26 -16 30 -33 11 -42 34 -82 82 -141 24 -30 48 -65 53 -78 13 -34 79 -129 214 -308 67 -88 129 -178 138 -201 9 -24 59 -87 122 -154 59 -63 124 -143 145 -179 25 -43 99 -129 210 -245 95 -98 188 -203 208 -234 62 -99 1803 -1828 2526 -2508 l279 -263 137 0 c78 0 152 -5 171 -12 60 -20 110 -62 324 -268 116 -111 242 -226 282 -256 218 -165 620 -570 678 -683 23 -45 16 -137 -14 -177 -28 -40 -89 -226 -97 -299 -3 -33 -18 -84 -31 -114 -26 -56 -48 -154 -77 -341 -22 -147 -21 -178 8 -205 17 -15 26 -38 31 -71 12 -95 34 -134 122 -221 97 -97 122 -107 163 -68 49 47 72 116 81 249 22 310 96 485 279 660 77 73 84 78 117 73 138 -23 433 -235 488 -352 32 -66 199 -231 268 -263 27 -13 86 -58 132 -102 46 -43 110 -96 142 -118 91 -62 283 -241 593 -551 320 -320 414 -428 538 -616 47 -71 102 -152 123 -180 21 -27 68 -108 105 -180 100 -193 155 -269 219 -302 49 -26 245 -75 320 -79 80 -6 203 22 341 75 205 79 344 212 421 401 70 174 71 466 2 601 -52 102 -112 153 -307 258 -73 39 -185 104 -250 145 -64 40 -154 92 -200 116 -45 23 -91 55 -102 70 -15 21 -31 29 -66 35 -40 6 -54 15 -97 62 -28 30 -89 84 -136 121 -218 168 -506 448 -661 642 -46 58 -128 154 -183 214 -54 60 -129 153 -167 205 -80 112 -117 149 -225 222 -107 72 -285 249 -315 313 -33 69 -34 211 -3 271 37 69 140 156 200 169 18 4 40 19 50 32 16 22 30 26 111 34 51 6 112 18 135 29 61 27 71 29 192 41 141 14 182 25 217 60 33 34 36 70 7 96 -12 10 -32 40 -45 66 -25 48 -48 68 -82 68 -10 0 -28 11 -39 24 -29 33 -99 39 -360 34 -203 -4 -209 -5 -257 -31 -31 -17 -64 -27 -90 -27 -65 0 -135 -22 -366 -115 l-214 -87 -551 553 c-692 696 -765 784 -765 925 0 57 -3 66 -43 120 -76 104 -440 476 -943 965 -565 549 -757 731 -869 821 -44 36 -195 177 -335 313 -152 148 -281 265 -320 290 -36 23 -123 96 -193 163 -151 143 -199 183 -249 207 -21 9 -89 65 -151 124 -65 62 -134 117 -161 130 -26 12 -78 50 -114 84 -80 75 -119 103 -154 112 -14 4 -57 35 -96 69 -39 34 -110 84 -157 111 -47 26 -96 61 -109 77 -18 24 -33 31 -70 35 -36 4 -51 12 -66 33 -10 15 -60 49 -110 75 -51 27 -112 68 -137 91 -25 24 -86 64 -137 90 -50 26 -140 81 -201 122 -122 83 -468 259 -529 269 -24 4 -48 16 -63 34 -14 15 -67 46 -118 68 -51 23 -159 77 -240 120 -178 96 -523 259 -565 268 -17 3 -41 19 -55 37 -17 22 -25 26 -25 14z"/>
  <path d="M10688 7635 c-80 -59 -302 -270 -840 -802 -657 -649 -1184 -1161 -1509 -1469 -263 -249 -384 -379 -394 -425 -14 -64 42 -131 541 -640 336 -342 499 -517 534 -575 13 -21 13 -27 -3 -57 -10 -19 -54 -73 -98 -121 -49 -56 -79 -97 -79 -111 0 -14 29 -55 74 -106 139 -158 497 -496 553 -522 35 -16 65 -2 147 70 105 91 136 113 163 113 34 0 36 -16 8 -75 -25 -55 -25 -56 -8 -93 23 -51 294 -320 370 -370 34 -21 82 -44 106 -50 24 -7 71 -31 103 -55 75 -55 219 -207 280 -294 54 -78 92 -121 116 -134 27 -15 61 8 187 124 115 106 126 114 193 141 100 40 156 230 85 290 -17 14 -28 36 -32 63 -5 29 -15 48 -32 61 -54 40 -36 194 42 362 25 54 49 115 52 136 4 26 14 41 34 53 29 16 39 37 39 82 0 45 65 160 153 269 131 164 306 348 948 1000 795 808 909 931 945 1015 14 33 4 55 -26 55 -27 0 -224 -185 -685 -640 -634 -628 -1056 -1040 -1092 -1067 l-33 -25 -47 35 c-27 19 -61 50 -78 67 -52 56 -114 90 -163 90 -85 0 -139 -90 -113 -189 20 -77 75 -131 131 -131 34 0 60 -19 60 -44 0 -49 -117 -179 -325 -361 -146 -128 -275 -257 -296 -297 -20 -40 -51 -52 -119 -47 -78 6 -111 -1 -134 -26 -33 -36 -71 -47 -116 -35 -71 19 -60 79 22 121 41 21 90 22 143 3 27 -9 -62 83 -97 102 -66 35 -129 1 -182 -96 -33 -61 -37 -123 -10 -168 22 -38 61 -58 134 -67 70 -9 90 -20 90 -49 0 -32 -47 -70 -144 -117 l-79 -39 -66 62 c-92 85 -191 199 -191 219 0 29 398 437 1737 1780 l1292 1295 -182 182 c-209 209 -292 278 -397 330 -71 36 -78 37 -180 37 -98 0 -108 2 -144 28 -21 15 -46 27 -56 27 -30 0 -211 160 -472 418 l-258 255 -596 -589 c-1197 -1183 -1803 -1762 -1958 -1876 -21 -15 -49 -28 -61 -28 -27 0 -96 45 -162 107 l-52 48 757 746 c847 834 1337 1311 1612 1569 102 95 198 185 213 200 l29 27 -79 64 c-43 34 -108 89 -144 121 -42 36 -76 58 -90 58 -13 0 -45 -16 -71 -35z m1865 -1627 c12 -49 -12 -101 -94 -203 -99 -125 -940 -963 -1037 -1034 -159 -116 -229 -114 -373 12 -166 146 -349 350 -349 388 0 28 98 129 124 129 14 0 56 -35 116 -96 90 -90 282 -234 313 -234 53 0 354 265 857 755 289 282 343 326 400 322 31 -2 35 -6 43 -39z m-1279 -418 c20 -22 36 -47 36 -56 0 -19 -72 -94 -90 -94 -20 0 -90 76 -90 98 0 27 62 92 88 92 11 0 36 -18 56 -40z m79 -1671 c33 -41 14 -95 -44 -125 -68 -35 -119 -14 -119 49 0 86 111 138 163 76z"/>
  <path d="M13061 5729c-99-57-421-389-421-435 0-7 14-29 31-49 59-67 88-52 303 156 157 151 233 238 242 276 6 21 1 32-25 55-40 36-63 35-130-3zM12345 5028c-136-101-594-579-644-671-16-29-8-75 14-84 48-18 110 30 455 352 302 282 362 346 358 385-3 28-59 70-92 70-12 0-52-24-91-52z"/>
</svg>
