<svg id="root" xmlns="http://www.w3.org/2000/svg" width="768" height="441" viewBox="0 0 30980 19950">
  <path d="M586 19523c19-43 63-140 97-215l62-137 35-1c19-1 1250-61 2735-133l2700-133 22 48c12 26 36 68 54 94l32 46-8 192c-4 105-9 193-11 195-2 2-500 30-1106 62l-1103 58-1772 1-1772 0 35-77zM6243 19593c15-2 37-2 50 0 12 2 0 4-28 4-27 0-38-2-22-4z"/>
  <path d="M6671 19267c1-228-2-339-9-354-6-11-25-26-41-33-22-9-39-28-57-66-25-52-26-59-20-157 49-740 92-1300 116-1502 13-107 46-461 62-660 7-90 13-306 12-495 0-295-3-365-28-590-40-379-55-549-59-707-3-140-11-174-41-173-6 1-85 100-176 222l-165 222-108 250c-64 149-120 296-137 361-72 269-300 1478-300 1593 0 30-2 33-22 25-13-4-54-8-93-8-91 1-164 38-207 104-28 45-28 45-28 218l0 172 32 36c28 33 32 44 36 117l5 80-24-7c-13-3-52-20-86-36-118-56-156-133-179-358-26-248-51-325-129-400l-45-43 0-801c0-482 4-838 10-892 26-225 100-494 205-740 53-124 202-426 290-585 124-226 383-729 410-795 15-38 38-130 51-205 13-74 31-157 40-183 37-109 182-229 651-535l203-132 68 0 68 0-4-62c-24-443-49-954-45-958 2-2 162-23 355-47 193-23 352-44 354-46 2-2-12-70-31-150-63-263-78-372-72-547 5-176 21-236 86-338 62-96 153-155 298-194 114-30 344-31 465 0 228 57 390 177 479 357 57 116 72 205 64 385-8 183-31 464-50 599-8 58-12 108-8 111 5 4 56 29 114 56l106 49 88 425c48 234 91 434 95 445 6 15 30 27 91 44 170 49 434 143 523 186 76 37 115 66 236 176 368 332 459 402 739 561 247 140 356 208 437 269 35 27 68 49 74 49 6 0 292-135 636-301l626-301 120 33 121 33 26-30c14-16 47-54 72-83l46-54 84 52c91 56 108 59 207 36 73-17 141-50 204-98l45-35 17 29c13 22 15 36 6 72-25 112-106 297-178 405-27 41-58 69-133 118-139 91-172 134-208 269-27 102-90 163-322 308-383 240-728 407-1004 486-59 17-113 31-119 31-6 0-35 16-63 35l-53 35-192-11-193-11-604-200c-619-206-620-206-621-160 0 8-18 91-40 185-21 95-46 215-54 267-17 102-40 513-56 965-5 154-12 343-16 420l-6 140 191 1172 191 1173-78 73c-42 41-92 87-109 103-33 29-33 29-19 70 21 57 70 298 111 543 20 113 38 216 40 229l5 22-1690 0-1691 0 2-333zM10389 19498c-9-57-15-104-14-106 1-1 1381-69 3066-152 1685-82 3097-151 3137-154l72-4 0 259 0 259-3123 0-3123 0-15-102z"/>
  <path d="M16760 19340c0-207-3-267-14-288-17-31-169-182-271-268-134-113-453-353-493-370-1-1-38-607-82-1348l-79-1346-191-241c-105-133-189-243-186-246 10-10 138 28 200 59 90 45 194 157 290 312l79 127 84 1322c46 727 85 1327 88 1334 2 6 179 158 392 336l389 326 12 213c7 117 16 241 19 276l6 62-122 0-121 0 0-260zM17110 19325l0-274 33-5c48-8 5407-270 5412-265 2 3 1 176-2 386l-6 381-211 5c-116 3-247 10-291 15-211 28-552 32-2711 32l-2224 0 0-275zM22900 19528c0-40 7-406 15-813 8-407 15-949 15-1205 0-256 7-640 15-855 37-1027 27-1423-45-1799-39-203-108-377-181-459l-36-41-139 91c-76 50-165 105-197 123-56 31-62 33-140 28-154-10-308-85-417-205-78-85-81-95-70-210 5-54 10-107 10-119 0-13 20-34 60-62 32-23 120-108 193-190 156-171 194-217 306-369l82-112-18-67-19-67 99-96c120-117 141-128 222-113 33 6 70 14 83 18 14 4 22 2 22-6 0-28 73-163 132-241 106-144 245-276 358-342 25-14 86-40 135-57 50-18 110-43 135-56l46-25 37-252c20-139 37-258 37-264 0-7-9-13-21-13-25 0-60-18-76-39-23-30-43-105-74-269-16-90-41-193-54-229l-24-67 30-37c49-62 70-121 71-199 0-60-4-78-36-143-31-63-37-85-37-138 0-100 64-284 119-343 68-72 222-161 357-207 64-22 86-24 250-24 159 0 188 3 253 23 193 61 357 242 413 459 21 82 27 238 14 345l-7 55 83 7c46 4 84 8 85 9 1 1 6 221 11 490l9 487 40 43c23 23 69 77 104 119 36 45 86 93 119 114 118 77 135 90 183 144 66 74 132 187 166 285l27 80-1 290c-2 405-23 553-114 805-121 334-156 440-196 599-46 181-86 403-104 580-21 213-8 450 50 928 16 132 37 306 45 385 21 188 36 283 95 583 83 426 85 441 85 725 0 308-8 343-109 494l-63 95-7 133c-10 184-32 458-56 678-20 182-66 524-77 568l-5 22-1144 0-1144 0 0-72zM25555 19558c12-78 9-76 88-82 77-7 4917-286 4953-286 20 0 18 10-40 205l-60 205-2474 0-2474 0 7-42zM25590 19347c0-8 11-113 25-233 13-120 30-285 36-366l13-148 40 0c134 0 925-34 1976-85 393-19 909-41 1145-50 477-17 669-29 855-51 199-23 440-43 640-53 211-10 219-8 250 62 31 71 42 162 47 415l5 242-39 0c-21 0-1144 63-2495 140-1351 77-2466 140-2477 140-12 0-21-6-21-13z"/>
  <path d="m10318 19081-38-202 54-52c29-29 60-67 69-84 16-31 17-31 119-37 289-19 5280-256 5320-254 46 3 59 12 354 253l307 250-39 7c-21 4-1369 75-2994 158-1625 83-2991 153-3035 156l-80 6-37-201zM747 18928c-15-262-7-1327 14-1993 11-368 21-670 22-671 1-1 805-29 1787-63 982-34 1845-64 1918-68l132-6 0 182 0 182-52-36c-105-71-144-77-508-86-485-11-1275-10-1440 1-779 54-1179 224-1309 559l-26 66-3 559c-3 531-2 562 17 638 22 88 82 215 136 288 65 89 177 185 266 229 125 62 168 65 809 57 832-9 1280-31 1590-76 445-65 663-211 765-510 13-38 29-103 36-144l13-74 29 44c65 98 191 186 341 236 79 26 101 30 171 26 136-8 237-74 297-196 30-61 33-76 37-182l3-115 18 55c31 99 64 154 139 233 41 43 117 110 169 150l94 71-8 141c-5 77-9 193-9 258l1 117-28 0c-43 0-5251 238-5339 244l-76 5-6-121zM16740 18692l-324-257 49-7c28-4 1393-68 3035-143 1642-74 3005-136 3029-138l44-2-6 249c-4 137-9 251-11 253-3 4-5467 304-5486 302-3 0-151-116-330-257z"/>
  <path d="M1952 18649c-76-13-198-55-262-92-87-49-200-168-244-257-65-133-68-166-64-690 4-440 6-469 26-545 73-269 237-420 535-495 175-43 278-51 837-60 294-5 636-14 760-20 124-7 338-13 475-13 211-2 261 1 320 16 102 26 163 57 226 115l56 52 6 227c6 243 13 290 60 373 14 25 42 63 62 85 34 37 38 46 47 130 5 49 17 137 26 195 21 136 19 179-13 305-75 301-210 472-430 545-75 25-211 45-435 64-615 53-1821 93-1988 65zM10450 18538c0-24-9-92-19-153-10-60-17-113-14-117 2-5 17-8 32-8 16 0 71-11 124-24 369-94 652-354 752-691 36-121 46-336 21-469-70-367-337-698-658-814-69-25-85-27-290-30-168-3-228 0-267 11l-49 14-5-42c-4-24-4-88 0-144l6-101 36 0c20-1 1283-38 2806-84 1524-46 2771-83 2771-82 2 1 182 2531 180 2533-1 1-1185 53-2631 117-1447 63-2667 118-2712 121l-83 6 0-43zm2263-243c32-8 76-24 99-36 63-32 145-115 175-178 26-52 28-65 28-181 0-117-2-129-28-182-59-120-193-208-330-216-72-4-82-2-144 28-121 60-254 216-269 315-8 59 11 176 39 237 49 106 147 186 262 214 68 17 101 17 168-1zm2077-249c257-55 497-266 635-559 75-160 90-228 90-412 0-140-3-169-23-235-55-175-128-297-261-433-221-228-528-348-807-316-158 18-389 108-507 197-92 69-300 419-327 548-8 38-11 138-8 303 4 238 5 248 30 308 109 259 464 528 788 597 85 19 307 20 390 2zm-2059-1149c72-35 152-115 186-186 22-48 27-73 31-169 5-136-8-180-73-246-163-162-429-185-566-47-70 70-91 135-97 298-6 170-1 190 54 252 49 55 91 84 162 112 74 30 228 23 303-14z"/>
  <path d="M12549 18172c-106-69-180-183-187-289-5-74 10-123 51-170 50-57 96-73 216-73 125 0 174 13 221 60 49 49 63 104 58 226-4 121-23 165-85 204-35 22-186 70-221 70-4 0-28-13-53-28zM14321 17930c-301-79-527-331-607-675-28-119-26-340 4-460 77-308 301-515 617-570 307-53 625 42 830 249 93 95 135 162 178 283 29 83 31 98 35 272 5 201-5 289-43 402-87 254-279 433-539 499-111 28-367 28-475 0zM12530 16820c-85-15-189-102-209-176-14-51-14-188 0-239 21-76 105-127 231-141 87-10 143 9 204 71 63 63 84 119 84 227 0 119-36 184-125 230-45 23-133 36-185 28zM25677 18404c5-76 11-96 38-139 46-72 79-140 104-217 13-38 28-68 34-68 7 0 732-34 1611-76l1599-75 600 213c397 141 591 214 571 216-16 1-1008 51-2204 112-1196 60-2217 112-2268 116l-92 6 7-88zM16300 18289c0-30-159-2387-165-2455l-6-61 703-6c815-8 1132-22 1408-62 215-32 394-38 870-29 596 11 987 10 1120-5 58-6 148-15 200-21 173-17 958-45 1617-56 312-6 385-5 398 6 67 56 103 267 126 735 12 240 13 1282 3 1537l-7 146-81 6c-44 4-1424 67-3066 141-1642 74-3015 136-3052 139-62 4-68 3-68-15zm1385-229c138-22 262-30 611-40 438-12 640-25 789-50 372-64 561-191 620-417 18-69 21-428 5-665-36-528-166-811-435-940-149-71-146-71-845-75-797-6-1025 7-1280 72-305 77-484 226-547 456-15 55-18 104-16 344 1 297 12 452 43 630 75 425 278 645 645 694 80 11 321 6 410-9zm3863-310c147-41 274-122 393-248 313-334 332-886 42-1252-139-177-366-308-610-354-538-101-868 134-982 699-33 164-46 333-33 421 25 156 107 299 253 439 272 260 645 377 937 295z"/>
  <path d="M17235 17964c-105-21-137-30-185-52-75-36-176-138-222-227-96-186-138-474-138-955 0-256 9-319 56-412 41-80 120-153 218-199 190-89 453-119 1046-119 173 0 380-6 460-13 80-6 224-12 320-11 160 1 183 3 265 28 49 15 114 40 145 57 313 167 452 551 420 1164-14 262-52 382-157 495-110 119-239 151-788 195-487 38-1345 68-1440 49zM21286 17629c-345-36-613-228-725-519-77-198-81-465-12-664 58-166 184-312 332-385 129-63 190-76 359-76 167 0 236 16 375 88 146 75 288 239 368 425 67 157 95 389 67 560-52 325-253 533-550 572-85 11-104 11-214-1zM6144 18112c-76-64-150-150-194-227-31-55-74-177-85-241l-6-41 46-12c50-13 67-37 58-84-4-20 3-37 27-67 44-56 79-145 80-202 0-37 42-306 87-556 3-19 16-40 32-51 50-35 162-93 168-88 6 7-6 155-47 552-28 268-43 448-74 873-8 106-16 195-18 198-3 2-36-22-74-54zM10247 17257c-76-468-138-859-137-868 0-27 129-54 255-53 410 4 757 276 861 674 58 223 29 440-91 685-29 61-75 137-102 170-108 133-378 245-592 245l-56 0-138-853zM25860 17765l0-104 33-6c17-3 64-10 102-15 39-6 109-20 158-31 72-17 96-28 140-64 164-134 257-369 228-580-47-344-96-658-116-742-64-268-168-427-329-502-92-43-146-53-316-60l-155-6-8-84c-5-45-6-85-3-88 5-6 3125-105 3141-100 8 3 337 2317 331 2324-2 2-3156 163-3192 163-11 0-14-23-14-105zm1592-146c55-14 119-68 151-127 36-67 60-181 54-254-11-121-110-264-220-317-68-33-198-27-273 12-53 27-103 76-129 127-24 47-45 149-45 225 0 59 4 77 26 110 40 59 101 121 172 172 97 70 150 80 264 52zm1073-79c100-43 149-145 150-310 0-95-3-111-28-161-88-180-348-264-506-165-139 88-172 306-76 496 45 87 112 129 251 154 88 16 150 12 209-14zm-1225-1186c72-21 148-94 185-177 68-150 10-335-140-449-68-52-140-72-228-64-193 18-297 147-297 370 0 146 135 280 324 321 81 18 93 18 156-1zm1058-57c96-50 142-145 142-293 0-120-25-181-109-265-78-78-147-109-243-109-83 0-131 16-183 62-67 59-89 124-89 268-1 149 17 203 94 281 73 74 116 89 240 86 80-3 103-7 148-30z"/>
  <path d="M27264 17504c-125-45-194-182-164-330 24-120 88-173 208-174 101 0 191 56 227 142 11 27 15 74 16 164 1 142-7 163-72 196-42 22-156 23-215 2zM28276 17445c-50-18-82-41-120-89-28-34-31-46-35-119-7-159 33-243 132-272 64-19 108-19 154 0 59 25 96 59 128 116 26 47 29 64 29 129-2 132-32 196-108 231-49 22-125 24-180 4zM27100 16249c-53-16-100-57-124-108-17-38-21-64-20-151 1-172 37-220 166-220 37 0 79 5 95 11 52 19 104 62 131 108 25 42 27 54 26 147-1 113-18 162-67 198-33 24-149 32-207 15zM28085 16212c-56-26-91-71-115-149-56-182 20-315 179-315 146 0 246 109 245 267 0 58-5 79-27 120-42 75-67 89-162 93-62 2-89-2-120-16zM25857 17416c-7-160-16-220-92-611-57-295-68-372-110-735-14-124-29-242-32-264l-6-38 164 3c162 4 166 5 229 36 122 60 206 173 265 354 42 129 65 259 105 572 45 353 38 510-27 628-54 101-112 131-326 168l-164 28-6-141zM6232 16296c21-105 38-197 38-203 0-9 19-13 60-13l59 0-5 103c-8 166-15 227-26 227-6 0-45 17-87 38l-77 39 38-191zM785 16128c3-13 19-88 35-168 17-79 33-146 35-148 3-3 789-26 1747-53 959-26 1805-49 1881-52l137-4 0 158 0 158-42 5c-24 3-851 30-1838 60-987 31-1832 58-1878 61-82 6-83 6-77-17zM6300 15963c0-28 56-272 63-280 4-3 9-4 11-2 2 2 7 70 11 152l7 147-46 0c-37 0-46-3-46-17zM10093 15698c4-83 8-152 10-153 2-2 5305-166 5338-165 11 0 47 54 101 149l85 149-131 6c-128 6-5308 166-5375 166l-34 0 6-152zM963 15675c194-71 1139-114 3296-150l374-7-7 33c-3 18-7 33-9 34-3 2-3658 106-3677 105-8-1 2-8 23-15zM16007 15525c-48-73-87-135-87-137 0-3 143-8 318-12 334-7 849-26 1367-51 664-31 1106-45 1765-55 377-5 712-12 745-15 33-3 287-10 565-15 327-6 563-15 670-26 231-23 591-24 690-1 155 35 273 117 312 216 16 41 16 41-7 41-44 0-6032 179-6140 183l-111 5-87-133zM22410 15335c-107-107-192-195-189-195 41 0 230 85 326 146l51 33 7 83c12 148 23 151-195-67zM10283 15413c-174-3-183-4-183-23 0-17 7-20 43-20 23 0 1136-29 2472-65 1337-36 2451-65 2478-65 35 0 47 4 47 15 0 12-15 15-77 15-360 1-1677 35-2263 60-129 6-453 14-720 20-555 12-824 24-960 46-101 16-494 24-837 17zM25575 15266c-4-58-4-118 0-135 6-27 10-30 58-35 29-3 270-10 537-16 1068-24 1276-30 1295-35 11-2 115-9 230-15 436-22 656 26 815 177l65 61-35 5c-19 3-658 24-1420 46-762 23-1419 44-1461 47l-77 5-7-105zM1566 14790c-273-102-503-268-638-460-63-89-133-233-173-354l-33-101-11-730c-34-2259-50-4560-57-8575l-7-3295 27-89c100-327 262-534 516-661 201-101 417-142 865-165 218-11 231-10 1775 74 1525 84 3234 176 6245 336 7768 413 12173 666 15835 909 676 45 742 51 820 74 181 54 320 138 441 264 155 163 250 361 308 640 21 100 21 121 21 1265 0 1780-21 4857-55 8100l-15 1397-35 108c-147 451-404 662-885 728-165 23-775 34-768 14 3-8 13-37 22-65l16-50 293-12c307-13 420-26 576-67 114-30 274-106 353-170 151-119 247-313 278-558 6-52 10-555 10-1377 0-1316 9-2509 35-4825 30-2605 40-4174 27-4285-69-631-495-972-1342-1074-265-33-454-38-1320-41-741-2-890-5-975-19-55-8-374-31-710-51-1520-88-2466-145-4620-280-5089-318-6693-409-8800-495-1274-52-1670-74-3110-175-1695-120-2155-149-2765-180-966-47-1940-68-2130-45-447 55-680 322-754 866-43 310-43 434-5 6004 6 855 8 2046 4 2645-13 2201 28 3714 110 4037 41 164 208 371 380 471 93 55 227 100 382 130l118 22 1135-2c624-1 1296-7 1493-13 198-6 361-10 363-8 5 6-39 122-48 129-5 3-673 11-1486 17-812 7-1511 14-1552 17-65 4-85 1-154-25z"/>
  <path d="M12490 14589c8-5 72-41 141-79l126-69 4234-96c2329-52 4264-95 4300-95l67 0 4 68c3 37 4 68 3 70-3 3-8686 212-8800 211-62 0-85-3-75-10zM14545 14023c-339-22-685-74-998-150l-149-35 7-27c4-14 10-28 14-31 4-3 23-15 42-27l34-21 125 29c205 47 635 118 726 119 20 0 21-6 27-182l7-182 60-93c33-52 60-99 60-106 0-6-25-89-55-184l-56-173 8-258 8-258 43-51c23-28 42-54 42-57 0-3-91-6-203-6l-204 0-201-95-201-95-137 19-136 19-112-69-113-69-76 0-75 0-259 161-259 161-105 185c-57 102-106 189-109 194-3 4-50 29-104 54l-97 45 42-78c24-42 92-162 153-267l109-190 48-250 47-250-40-67-40-68-99 0-100 0-133-90c-74-49-137-94-141-99-3-6-14-98-25-206l-20-196-80-172c-44-95-84-172-89-172-5 0-296 242-645 539l-636 538 36 42c394 445 774 783 1192 1061 56 37 102 71 102 74 0 8-106 61-121 61-25 0-362-246-539-394-359-300-692-651-978-1031-626-833-1037-1825-1187-2860-51-353-59-473-60-915 0-422 4-504 46-830 154-1220 682-2382 1498-3294 1557-1738 3942-2382 6146-1659 1255 412 2365 1264 3122 2398 159 237 265 421 398 690 154 310 235 503 335 805 514 1538 425 3176-253 4647-432 938-1151 1798-1991 2383-883 615-1837 951-2921 1030-127 9-607 11-730 3zm574-123c423-19 777-70 1156-166 77-19 141-37 143-39 2-2-8-25-21-52-23-45-25-61-31-288l-7-240 46-129 45-129-10-176-11-176-90-168c-73-137-89-176-89-211 0-24-3-58-6-76l-7-32-96 7c-95 8-98 9-262 91l-166 83-134 7c-108 5-186 18-403 65-247 54-280 59-393 59l-123 0-63 80-64 81-6 151c-13 292-14 286 53 495 33 103 60 192 60 197 0 5-31 60-70 121l-70 111 0 162c0 89 1 163 3 163 2 2 253 14 347 17 25 1 146-3 269-8zm1606-300c510-174 1000-428 1452-752l81-58 6-102c3-57 7-165 8-242l3-138-64 6c-51 6-90 1-207-25l-145-32-63-102c-61-97-66-108-95-245l-31-143-88-99c-48-55-94-108-102-117-8-10-86-51-173-92l-159-74-196-200c-171-176-221-234-405-480-115-154-213-281-217-283-5-2-11 5-14 15-3 10-26 87-50 171l-46 153-67 76c-38 42-67 82-65 92 2 9 19 84 38 166l35 150 166 219 165 219-62 136-63 136 6 92 5 92 88 163 87 163 13 204 12 205-45 130-46 131 6 218c6 200 9 222 29 258 12 21 29 39 39 39 9 0 83-23 164-50zm1837-1055c875-747 1520-1757 1843-2886 121-421 195-856 225-1314 5-88 10-195 10-237l0-78-189 0c-104 0-195-2-203-5-8-3-34 26-70 79-50 73-60 96-78 179l-21 95 29 73c27 68 28 75 14 97-14 21-13 30 6 100 21 75 21 83 8 257l-13 180-43 90c-49 105-231 638-295 869-44 158-45 162-45 314l0 155-102 199-103 199-286 280c-158 153-292 279-298 279-6 0-42 15-79 34-63 32-104 72-194 193-5 6-17 68-27 136l-17 125-61 93c-34 52-67 113-74 136-10 36-18 45-55 60l-44 18 0 140c0 77-3 171-7 209-4 49-3 68 5 65 6-2 80-62 164-134zm-3427-396c228-50 305-62 415-68l135-8 163-82c158-79 166-82 260-91 53-5 109-10 123-10 23 0 31-11 68-92 23-50 40-97 37-104-3-7-69-97-147-200l-143-187-27-114c-15-63-30-117-34-121-3-4-10 0-15 8-149 244-148 243-269 327-63 43-118 79-122 81-4 2-153-94-331-212l-323-216-116 0-116 0-61 48-60 49-379-43c-208-24-384-44-390-44-7 0-56-40-107-90-52-49-101-90-108-90-7 0-29 13-47 29l-35 29 16 58c16 57 15 64-16 265l-33 206-91 118c-51 65-92 128-92 139-1 12-7 63-14 114l-13 93 82 49c93 56 98 57 249 34l105-15 213 100 213 100 365 1 365 0 280-61zm3197 9c39-17 52-28 67-64 11-24 40-72 66-108 44-63 46-67 65-200l19-136 89-108c49-59 105-117 127-129l38-21-114-57c-63-32-115-58-117-60-1-1-15-50-31-108l-28-106 40-154 40-155-40-218-39-218 28-150c15-83 27-163 28-177 0-21-26-48-145-148l-145-122-76 7-75 7-160-108-160-108-84 12-83 12-172-121c-94-66-175-120-179-120-5 0-22 69-38 153-19 98-33 152-41 151-7-1-47-2-90-2l-77-2-92-147-91-148-60-231-59-231-53-49c-69-65-83-74-106-68-16 4-28 43-73 230-30 123-58 229-61 235-10 16-290-8-311-27-32-29-37-17-32 89 5 96 3 110-35 250l-41 147 165 297c160 288 171 306 413 628 217 289 271 355 427 515l179 183 167 81 166 81 120 136 120 136 31 148c28 131 37 157 76 219l44 71 93 22c113 27 224 24 300-9zm-5543-116 194-121 77-7 78-6 11-77c6-42 14-98 18-126 6-43 18-65 96-163l89-113 28-179 28-180-24-87c-13-48-20-89-16-92 43-31 122-95 122-99 0-3-8-15-19-26-10-12-26-55-36-96-9-41-19-82-21-92-4-12 4-18 28-23l32-7-27-15c-15-7-27-16-27-19 0-3 21-41 46-85l46-80-127-267-128-266-8-141c-4-77-8-157-8-177-1-21-5-38-9-38-11 0-325 267-338 288-6 9-49 196-95 416l-83 398-124 141-124 141 6 56c3 30 13 197 23 370l17 315 59 96 59 97-31 168c-17 93-34 182-37 198-5 25-4 28 12 24 11-3 106-60 213-126zm-2190-522c121-102 219-188 218-191-1-4-105-120-232-259-205-225-232-259-248-309-10-30-46-153-81-272l-62-216 100-169 101-168 201-67 201-66 196 51c108 28 201 56 205 61 5 6 25 55 45 110 26 73 37 123 41 186 6 84 9 92 110 305 69 145 109 219 118 218 8-1 52-32 97-70l82-69-6-90c-3-49-8-115-11-145l-6-55 66-53 66-54 0-74c0-62-5-84-29-132-43-84-70-104-193-140-71-22-152-56-239-103l-131-71-70 7-70 7-82-80-81-81-85-11c-46-5-103-10-127-10-29 0-227 67-670 226-345 124-630 228-632 230-11 10 165 422 265 624 124 249 228 431 371 650 107 163 334 471 345 467 4-1 106-85 227-187zm1781-23c0-23-9-190-20-372l-20-329 23-25c13-15 71-80 129-146l106-120 206-975 206-975 0-272 0-273-41-21c-40-20-43-20-86-4-24 9-54 14-67 11-19-5-34 8-97 81-62 72-79 101-105 172l-30 86-124 56c-111 50-125 59-135 88-6 18-18 37-28 42-15 9-17 30-17 175 0 124 4 174 15 201 12 28 14 59 9 144l-7 108-200 221-199 221-48 112-48 112 23 25c12 14 41 61 64 104l41 79-1 116 0 116-65 54c-62 52-65 56-60 90 3 20 8 75 11 123 6 83 10 94 107 300l100 213 19 185c12 109 25 189 32 196 6 6 50 37 96 68 80 53 86 56 147 56l64 0 0-43zm3279-215c58-42 76-66 185-238 71-112 150-223 191-268l70-76 62-207c35-114 63-210 63-214 0-4-127-238-283-521-156-282-332-602-392-711-65-119-113-196-120-193-6 2-66 43-132 90l-120 86-94 0c-52 0-138-3-191-7-94-6-98-7-98-30 0-27-7-29-32-6-10 9-20 14-21 12-2-2-30-36-63-74-32-39-70-94-83-123-14-28-27-52-30-52-3 0-237 407-519 904-509 897-513 905-504 943 6 21 13 50 16 64 3 16 58 75 143 156l138 130 346 39 346 38 49-41 49-40 165-7 165-6 295 199c162 110 304 200 315 200 11 0 49-21 84-47zm3526-207 242-235 97-185 96-184 0-156c0-143 2-164 31-266 17-61 29-112 27-113-2-2-59-22-128-46-120-42-127-46-181-104l-56-60-182-27c-148-22-187-31-205-48-12-12-27-21-32-21-6 0-51 75-99 167l-90 168-31 177-31 177 40 218 40 217-39 152c-38 150-38 152-24 215l15 64 125 62c69 34 129 62 134 62 4 1 117-105 251-234zm-8026-30c127-108 233-200 236-206 4-5-47-123-113-262-119-252-119-252-126-345-4-58-16-117-30-155l-23-62-139-37c-76-21-148-38-159-38-11 0-89 23-172 51l-153 51-74 124-75 123 67 230 67 230 223 245c123 135 228 246 232 246 5 0 113-88 239-195zm2862-1592c233-411 426-751 428-755 2-5-12-6-31-3-28 5-54-3-144-45-91-42-120-62-179-121-65-64-75-70-123-76-43-5-57-11-73-34-11-16-26-29-33-29-7 0-52 37-100 83l-87 82-160 385-159 385 11 230 12 230 100 208c55 114 103 207 107 207 3 0 197-336 431-747zm-4011 153c456-165 626-222 632-213 6 9 10 9 17-2 8-12 30-12 156 1l147 16 78 77 78 78 59-7c58-6 58-6 198 69 138 73 300 134 316 118 4-4 28-56 53-115 44-107 45-107 236-318l191-210 6-64c9-104 8-106-127-181l-119-66-143 6c-143 7-143 7-227-24-100-36-106-37-236-12-55 11-215 27-355 36-241 15-268 19-484 67l-228 52-252-12c-215-11-290-19-521-58-148-25-281-43-295-40-14 2-41 12-61 20l-36 15 28 148c47 255 100 468 180 726 38 120 42 128 63 123 12-3 303-107 646-230zm8726 32c59-112 112-209 117-216 8-10 27 3 82 58l72 72 182 27 183 26 64 67c62 63 70 68 171 102 59 20 108 35 109 33 2-2 47-131 100-287 53-157 116-326 139-377 42-90 43-95 55-251 11-158 11-161-14-247-20-69-23-91-14-110 9-20 7-36-11-85l-22-60 25-126c25-123 27-127 96-227 62-91 70-108 70-150l0-47-52 0-53-1-119-160-119-160-30-174-29-173 51-138 52-139 99-74c93-71 100-78 111-124 12-52 71-127 267-341 45-49 82-95 82-103 0-27-150-461-208-603l-59-145-77-3c-74-3-78-2-119 32l-42 34-35-18c-19-11-40-19-45-20-6 0-57 34-114 75l-103 74-84-56-85-57-157 49c-86 26-166 50-178 52-16 4-34-12-78-66l-58-71-137 0-137 0-61-47c-58-44-62-50-79-115-10-38-22-67-27-65-4 1-82 62-171 136l-164 133-58 156-58 157-94 96c-65 68-103 99-124 103-41 8-58 23-58 53 0 13-19 48-42 78-35 43-57 59-113 83l-70 30-3 165-2 164 71 159 71 159 8 279 9 279-45 204c-40 181-62 252-199 628l-153 424-7 183-6 183 183 127 183 126 79-14 80-14 164 111 164 111 81-7 82-6 145 125c80 69 148 125 152 126 3 0 55-91 114-202zm-5641-236 150-128 164-398 164-397 61-58c34-32 81-76 105-97 38-35 42-43 33-61-9-16-4-64 24-219l36-199 97-181 96-181 103-74c57-41 107-79 112-84 9-11-343-330-358-323-4 2-78 75-164 164l-158 160 0 120 0 119-210 218-210 218 0 282-1 282-103 483c-56 265-100 482-96 482 3 0 73-58 155-128zm2870 4c15-53 17-95 13-239l-4-174 69-7c68-6 69-6 114 31 41 34 54 39 117 44 39 3 73 4 74 3 4-3 91-343 92-355 0-9-169-89-189-89-9 0-93 34-186 75-142 62-172 72-185 61-8-7-75-65-148-129-73-65-136-117-140-117-5 0-18 10-30 23-18 19-23 40-28 113l-6 89 202 368c112 202 206 367 210 367 4 0 16-29 25-64zm1159 37c26-89 56-315 65-488l10-200 154-425c135-373 159-449 196-619l43-194-7-251-7-251-74-169-74-169 0-144c0-78-2-143-5-143-22 0-66 36-95 78-22 32-49 57-77 71-41 20-48 30-89 117l-44 96-38-6c-136-20-140-20-282 32-126 47-136 52-173 98-22 28-63 62-95 80-32 17-87 48-124 68l-68 37 92 134 91 133 10 301 10 300-27 31c-23 28-26 40-26 101 0 64-6 86-75 254-41 102-75 188-75 192 1 4 43 28 95 52 88 41 98 44 156 38l63-5 101 89 102 90 62 244c61 241 63 246 124 344 34 55 65 100 69 101 4 0 9-8 12-17zm-1852-632c140-100 138-98 138-223 0-69 0-69 56-139 39-49 73-110 112-197 38-89 82-166 144-254l89-127 28-158 29-157-86-124-87-124-95 8c-52 3-115 14-140 24-36 13-67 16-152 12l-107-4-58-69c-52-63-60-69-95-69-29 0-51 9-88 37-27 20-82 49-122 64-40 14-72 31-71 38 2 6-7 11-20 11-12 1-101 7-197 14l-175 13-126 91-127 92-84 160-85 160-27 155-28 154 46 66c45 62 49 65 89 65 40 0 48 5 122 81 65 65 96 88 164 119l83 40 68-11c62-11 69-14 84-45 8-19 20-34 24-34 5 0 42 69 81 152 50 105 89 171 123 210l50 58 157 0 158 0 125-89zm-4827-71c205-48 228-51 498-70 194-13 320-27 403-44l121-25 94 36 94 35 152-6 153-6 90 50c49 27 92 50 95 50 3 0 5-65 5-144l0-145 29-20c19-14 30-32 35-58 6-38 6-38 136-93l130-55 26-72c21-56 44-92 106-165l79-93-268-7c-147-4-905-16-1683-27-778-11-1486-23-1573-26l-157-5 5 142c11 274 47 693 61 707 2 2 30-4 62-13l58-18 285 47c225 37 331 50 509 60 124 7 228 13 232 14 4 0 105-22 223-49zm5620-183 140-63 78-189c78-188 79-191 77-273-1-76 1-85 26-115l27-32-7-255-7-255-148-220c-146-217-150-221-252-302-57-45-109-82-115-83-6 0-28 38-49 85-35 79-46 92-151 191-68 63-114 114-114 125 0 17 8 19 99 19l98 0 112 159c61 88 113 166 116 174 3 7-10 100-29 206l-35 192-92 131c-82 117-185 316-177 339 4 10 251 229 258 228 3 0 68-28 145-62zm4571-834c-11-292-49-629-101-899-35-186-87-404-96-404-8 0-207 219-243 269-13 18-27 51-30 75-8 49-20 62-141 153l-80 60-38 105-38 104 24 141 25 141 88 121 89 120 93 1 94 0-7 95-7 95 187 0 188 0-7-177zm-7338-70 130-137 7-84c4-46 5-85 3-86-6-6-724-286-731-286-4 0-7 13-7 28l0 29-259 43-259 43-88-60-89-60-215-27-215-26-335 60c-326 59-341 61-583 70l-249 9-186-61-187-60-364-20-363-20-98-69c-54-38-103-69-108-69-14 0-18 24-42 215-23 195-40 421-40 549l0 96 128 0c111 0 1756 25 3182 49 267 4 564 9 662 9l176 2 130-137zm1260-408c2-2-36-73-83-158-47-86-85-160-85-165 0-5 10-14 23-20l22-11-23 0c-12-1-25-8-29-16-3-9 0-77 6-152 14-172 3-218-74-313l-53-65-7-226c-6-193-4-257 14-440l22-214 85-175 85-175-94-563c-51-309-97-565-100-569-4-3-76 26-160 65-84 40-156 72-160 72-4 0-31-16-61-36l-53-35-166 25c-91 13-172 28-180 33-8 4-97 75-199 156l-185 148-83 143-83 143-153 49c-120 39-154 53-158 69-3 11-9 76-12 145-5 96-11 133-26 160l-19 36 31 84c17 47 42 144 56 215l25 130 54 55 54 55 3 83 3 82 790 699 790 700 90-6c50-3 91-7 93-8zm861-26c30-11 31-13 31-69l0-59 119-111 119-112 72-153c40-84 78-152 84-151 6 0 82-77 168-172l158-174-20-39-20-39 151-249c141-233 153-250 184-255 38-7 22 28 164-356l80-215-23-40-24-39 30-44c29-43 30-46 19-100-14-72-14-72 8-72 28 0 35-17 11-25-11-3-20-12-20-18 0-7 25-55 55-107 37-64 51-98 44-105-12-12-99-13-189-1l-65 8-50-126-50-126-205-192c-113-106-205-197-204-203 1-5 51-80 112-167 126-177 246-386 265-462 13-48 11-59-19-181-28-111-31-135-22-170 10-38 9-43-38-117-50-80-63-88-138-88-25 0-53-19-136-90-58-50-110-89-117-88-6 2-72 80-146 175l-134 172-107 248c-91 208-115 255-152 293l-43 45 44 84 45 83 0 249 0 249-119 288c-100 239-122 300-130 367-6 44-27 182-48 306l-37 226 29 104c30 104 30 104 26 339l-3 235 29 28c28 26 29 31 22 75-4 26-8 158-8 293-1 196 2 255 14 289 8 24 14 44 13 45-2 1-16 7-33 13l-30 10 27 1c15 1 29 5 32 10 3 4-9 94-28 199l-33 190 39 46c24 27 49 46 66 49 54 8 100 7 131-4zm-1780-154 152-155-556-491-556-492 22-23 22-24-31 0-32 0 0-67c0-67 0-68-49-118l-49-50-26-140c-15-77-44-189-66-249l-39-108 23-47c19-36 25-70 31-156 4-60 16-152 27-203 18-87 18-96 3-141l-16-48 69-144c38-79 106-202 152-274 66-103 87-146 102-205 42-163 33-148 101-181 46-23 71-44 97-80 20-28 59-64 92-84 52-32 62-44 92-110 31-67 37-74 67-77 31-3 34-7 117-185 58-124 91-183 103-186 11-3 19-15 20-29 1-12 4-67 8-121l6-99-45 6c-25 3-81 8-125 12-92 7-98 10-225 118-52 45-102 86-110 92-11 9-81 8-275-1l-260-14-134-50c-74-28-138-48-141-44-4 5-46 59-95 120-85 109-92 115-209 184l-121 72-94 136-95 136-91 265c-51 146-107 312-126 369l-34 103-117 129c-65 71-118 138-118 148 0 10 7 56 16 102 13 71 27 105 90 214 71 126 74 133 74 197 0 64 1 66 35 89 34 23 35 26 35 87 0 63 0 64 47 106l47 43-93 309c-52 170-103 339-114 377l-20 67-43 0c-38 0-45 4-59 30-8 16-15 49-15 72l0 44 1178 461c647 254 1182 462 1188 462 6 1 79-69 163-154zm1139 131c43-15 96-43 130-70 48-37 68-45 107-48l49-3 29-165c29-163 29-166 12-232-14-57-16-111-14-338 3-269 2-270-21-302l-23-31 7-235 7-234-32-116-32-116 42-266c23-146 43-275 45-287 3-23 2-23-113-23-109 0-122 2-211 36l-95 36-40-44c-22-24-55-61-72-82-18-22-34-38-37-35-2 2 14 108 35 234 21 127 39 233 39 238 0 4-15 7-32 7l-33 1 28 15c15 8 27 17 27 19 0 3-36 78-81 167l-81 162-20 190c-16 152-19 235-15 409l5 217 48 56c39 47 52 71 69 138 21 76 21 90 12 232l-11 152 94 171c51 94 96 171 100 171 3 0 39-11 78-24zm-2389-156c95-16 175-31 177-33 2-2-339-137-758-301l-760-298-122 56-121 56-160 9-160 8-65-62c-44-43-95-78-155-109-49-25-97-51-107-58-13-9-51-2-195 40-155 44-198 52-327 62l-149 12-71-76-71-77-64-2-64-2-18 70c-34 132-81 365-76 379 3 7 56 48 118 91l112 78 348 18 349 19 187 60 188 60 220-6c213-6 231-8 576-70l356-63 239 30 239 31 79 54c44 30 80 54 80 54 1 0 79-13 175-30zm3996-149c89-47 118-69 154-112 43-53 46-55 210-117 159-60 169-62 231-56l66 6 32-74c30-69 36-76 85-100 38-18 63-40 88-76 33-49 39-53 202-123 175-76 217-106 217-154 0-71 9-83 79-104 57-17 75-29 134-89 66-67 69-71 130-232l63-165 319-262 318-261 104-199c62-119 102-207 101-222-3-20-19-29-123-67-66-24-134-44-151-44-49 0-327 39-335 48-4 4-57 72-118 152-109 142-111 145-112 200-1 30-4 65-7 77-4 13-91 87-212 180l-205 158-86 11-85 10-400 226c-366 207-406 228-470 238-38 6-78 15-89 19-18 8-245 366-245 387 0 5 10 28 22 50l22 42-180 198c-99 110-183 204-186 209-4 6 49 53 116 105 88 68 133 110 157 147 19 29 36 53 39 53 3 0 55-27 115-59zm-5515-542 105-48 5-63c4-48 14-81 44-135 36-68 41-73 72-73 32 0 34-2 53-62l19-63-47-13c-25-8-102-17-171-21l-125-8-139-66c-76-37-143-67-149-67-5 0-36 16-69 36l-59 36-90-17-89-18-132-146c-72-80-139-155-149-166-17-19-16-26 12-160 17-76 31-140 32-141 1-1 33-10 71-20l68-19 46-79c34-59 47-93 50-132l4-52-66-7-66-7-86-94c-48-52-92-94-98-94-11 0-135 212-234 400-63 119-174 364-242 535-57 142-180 504-180 528 0 11 17 19 58 27 31 6 67 13 78 15 12 3 49 34 83 71l62 66 116-11c91-8 162-24 315-68l198-57 42 33c24 17 84 52 134 76 66 31 105 57 137 92l46 49 118-4c116-4 120-5 223-53zm388-741 51-172-39-34c-38-32-40-36-40-92 0-56-2-61-35-86-35-26-35-27-35-108l0-81-71-125c-63-113-72-135-89-227-10-56-21-107-24-112-4-5-40-29-82-51-64-36-77-40-91-28-102 81-440 394-445 411-3 12-6 36-7 54-1 19-27 79-68 152l-67 120-54 12c-59 14-63 19-81 101l-12 58 112 124c102 114 116 126 158 135 44 9 49 8 118-34l72-44 167 79 166 80 92 0c57 0 117 7 161 19 39 11 75 20 81 20 6 1 33-76 62-171zm5802-238 389-220 74-6 75-7 176-135 176-135 0-48c0-26 4-59 10-74 5-14 93-134 195-267l185-240 0-74 0-74-42 5c-24 3-54 8-68 10-14 2-77 33-140 69-104 59-124 67-200 77-77 10-104 21-272 105-212 106-211 105-229 228l-11 76-44 0c-39 0-44 3-44 23 0 17-18 32-78 67-74 44-77 47-80 87-3 40-6 43-148 148-79 59-148 114-153 124-9 15-62 157-147 389-18 50-29 92-23 92 5 0 185-99 399-220zm2237 103 153-46 70 46c38 26 72 47 76 47 3 0 49-31 102-70 53-38 101-70 107-70 6 0 20 7 31 15 25 19 58 19 74 0 8-10 32-15 69-16 100-1 99 3 28-144-133-271-319-583-511-853-55-78-106-141-111-140-6 2-83 64-172 138l-160 135-5 50c-3 39-29 97-119 269l-114 218-93 76c-61 50-91 81-88 91 3 9 12 43 21 76 10 36 27 69 41 83 24 21 34 22 172 22l147 0 48 60c27 33 56 60 65 60 9 0 85-21 169-47zm-2362-609c56-42 60-48 65-91 5-46 6-48 84-95 87-51 90-55 100-110 7-36 9-38 45-38 36 0 39-2 45-33 3-19 49-110 100-203 93-167 95-171 121-304 26-130 29-137 76-196l49-62 0-81c0-45-4-81-8-81-5 0-21 14-37 30-21 22-38 30-65 30l-35 0-275 483c-150 265-296 521-323 570l-50 87 13 63c13 66 17 77 28 77 4 0 34-21 67-46zm-6373-329 240-215 32 19c68 41 178 101 186 101 4 0 53-49 109-109l100-108 124-364 124-364 109-159 109-158 122-72c118-69 124-75 212-185l90-113-44-81c-24-45-51-86-59-91-16-11-124 50-351 199-492 322-957 747-1337 1220-94 117-305 407-329 451-11 21-4 31 75 117l88 94 60 6c33 3 65 10 71 16 6 6 15 11 19 11 5 0 117-97 250-215zm4212 90c59-22 82-25 205-25l139 0 20-47c11-27 58-140 105-253l85-205 7-220 6-220-48-85-48-85-164-37-165-38-90 48c-73 39-128 58-281 97-104 26-193 51-197 54-11 10 130 854 145 863 6 4 24 8 38 8 20 0 41 19 95 85 38 47 72 85 75 85 4 0 37-11 73-25zm-1994-10 75-26 73-129 74-129 219-176 219-176 195-29c107-17 205-30 216-30 12 0 38 12 56 26 44 33 55 31 216-45 115-55 127-63 122-83-10-46-45-266-45-285 0-18 28-27 243-82 210-54 256-70 346-117 58-30 111-54 119-54 8 0 93 19 189 41l175 41 39-38c31-31 60-88 145-284l106-245 137-175 137-176-120-32c-142-38-148-38-314-12l-127 20-62 66-61 66-244-26-244-26-280 50c-265 48-290 54-499 128-257 92-232 64-242 280l-6 143-37 19c-33 17-44 35-127 212-88 186-92 193-122 196-26 3-35 11-56 53-19 37-41 59-88 91-35 23-79 64-102 96-26 35-56 62-87 78-39 20-49 31-57 61-5 21-16 63-24 93-9 35-44 102-96 183-114 179-204 362-196 396 7 29 33 61 49 61 6 0 45-11 86-25zm6358-337c86-72 160-134 165-138 17-15-342-420-372-419-9 0-115 74-236 163l-220 163-3 119c-2 106-5 121-25 143l-22 24 65-7c207-20 183-22 330 32 74 28 141 51 148 51 8 1 84-58 170-131zm-2001-311 244-429-7-104-7-105-132-162-133-162-133-48-134-47-162 0c-119 0-162 3-165 12-3 7 10 70 28 140l32 127-18 75c-21 93-128 291-248 460-46 66-86 125-89 131-2 7 76 86 174 177l178 166 35 91c38 100 35 98 120 82 34-7 54-5 90 9 25 10 54 18 65 17 15-2 78-105 262-430zm524 223c82-42 116-53 186-62 78-10 97-17 207-79 117-66 124-68 225-79l103-12 234-172 234-171-82-78c-196-185-529-467-553-467-6 0-113 105-238 234l-227 234 0 117 0 117-50 63c-58 73-61 82-90 230-12 61-31 125-42 143-11 17-17 32-14 32 4 0 52-23 107-50zm-104-756 39-47 32 17c17 9 37 16 44 16 12 0 148-134 366-361l73-75-183-121c-101-66-221-143-268-170-566-334-1203-573-1842-693-225-42-208-46-208 50 0 67-4 87-23 118-51 80-51 81-15 81 18 0 112 21 208 48 142 40 175 52 174 66-2 19 7 22 22 7 7-7 48 23 127 91 116 100 117 101 184 110 38 4 71 8 75 9 3 0 35 45 70 100l63 100 180 0 180 0 165 61 165 61 158 194 157 194 0 95c0 52 4 95 9 95 5 0 26-21 48-46zm-4472-648 120-103 190-18c206-19 164-8 560-145 115-40 191-58 425-99l285-50 215 24 215 24 60-59c58-57 62-59 139-72l80-13 53-89 54-88-3-77-3-76-115-12c-924-97-1824 29-2694 376-151 61-481 214-513 239l-22 17 55 100 55 100 147 52 147 53 185 8c102 5 199 10 215 10 24 1 52-18 150-102z"/>
</svg>
