<svg id="root" id="outputsvg" xmlns="http://www.w3.org/2000/svg" width="650" height="650" viewBox="0 0 6500 6500">
  <g fill="rgb(197,199,159)">
    <path
      d="M2915 6489 c-27 -4 -88 -13 -135 -19 -216 -29 -503 -105 -720 -191 -851 -340 -1499 -988 -1839 -1839 -86 -217 -163 -505 -191 -720 -6 -47 -15 -113 -20 -146 -13 -80 -13 -568 0 -648 5 -33 14 -99 20 -146 28 -215 105 -503 191 -720 340 -851 988 -1499 1839 -1839 217 -86 505 -163 720 -191 47 -6 113 -15 146 -20 80 -13 568 -13 648 0 33 5 99 14 146 20 215 28 503 105 720 191 851 340 1499 988 1839 1839 86 217 163 505 191 720 6 47 15 113 20 146 13 80 13 568 0 648 -5 33 -14 99 -20 146 -28 215 -105 503 -191 720 -340 851 -988 1499 -1839 1839 -217 86 -505 163 -720 191 -47 6 -113 15 -146 20 -73 12 -587 11 -659 -1z m574 -1003 c116 -461 211 -844 211 -850 -1 -6 -51 -47 -112 -91 -61 -44 -155 -113 -209 -152 -54 -40 -102 -73 -105 -73 -5 0 -149 102 -380 271 l-52 38 205 818 c231 925 225 902 229 888 2 -5 98 -388 213 -849z m-549 315 c0 -7 -164 -670 -176 -712 -3 -11 -44 -30 -112 -54 -59 -20 -150 -57 -204 -82 l-96 -45 -322 193 -322 193 24 18 c45 35 214 146 283 185 232 134 490 231 764 288 127 26 161 29 161 16z m823 -16 c361 -74 727 -234 1008 -442 l67 -49 -315 -190 c-174 -104 -321 -190 -328 -192 -6 -2 -52 17 -101 42 -49 24 -139 61 -199 81 l-110 37 -89 357 c-49 196 -91 362 -94 369 -6 18 22 15 161 -13z m-1155 -1261 c2 -1 -13 -103 -33 -225 -19 -123 -38 -241 -41 -261 -3 -21 -6 -38 -7 -38 -1 0 -54 -9 -117 -20 -63 -11 -125 -20 -138 -20 l-24 0 33 27 c43 36 61 84 58 152 l-2 56 27 30 c53 57 61 82 61 196 l0 105 -30 49 c-46 74 -106 107 -205 113 -113 6 -163 -10 -226 -73 -61 -61 -78 -117 -68 -224 8 -78 21 -114 59 -160 l29 -33 1 -67 c3 -111 47 -163 150 -178 l50 -7 -70 -12 c-38 -7 -80 -13 -92 -13 l-23 -1 -446 748 c-246 411 -449 750 -451 754 -3 6 1485 -882 1505 -898z m2830 884 c-8 -13 -212 -351 -453 -753 -240 -401 -439 -732 -441 -734 -2 -3 -39 1 -82 8 -42 6 -157 24 -255 40 -99 15 -182 33 -186 40 -4 6 -15 64 -25 129 -10 64 -26 169 -37 233 -10 64 -19 125 -19 135 0 14 35 40 123 93 68 41 113 63 101 49 -70 -76 -116 -254 -129 -495 l-8 -133 278 0 278 0 -6 163 c-8 244 -60 417 -148 491 -34 29 -52 35 -124 38 l-49 3 594 357 c327 196 597 357 599 358 2 0 -3 -10 -11 -22z m-3836 -1270 c-27 -44 -67 -140 -111 -267 l-37 -104 -369 -92 c-204 -51 -371 -92 -372 -91 -4 3 31 177 58 286 73 294 220 610 405 873 l56 79 195 -326 195 -325 -20 -33z m3815 537 c116 -172 222 -385 294 -592 42 -123 102 -360 114 -450 l7 -51 -359 89 c-197 49 -364 93 -372 97 -8 4 -29 53 -47 107 -19 55 -54 142 -79 193 -25 52 -45 98 -45 104 0 5 86 153 191 328 l191 319 32 -42 c18 -23 50 -69 73 -102z m-3201 -146 c40 -24 74 -76 74 -112 0 -53 -102 -136 -147 -120 -68 24 -121 102 -102 150 13 35 36 61 74 84 39 24 60 24 101 -2z m2127 -61 c25 -54 51 -155 62 -240 l6 -48 -101 0 -101 0 7 53 c14 117 69 287 93 287 5 0 21 -24 34 -52z m-2153 -332 c0 -7 -6 -19 -13 -25 -17 -13 -54 10 -43 27 10 17 56 15 56 -2z m1275 -110 c99 -40 227 -92 285 -116 58 -24 112 -50 121 -59 9 -9 38 -70 64 -136 27 -66 81 -197 120 -291 44 -104 69 -177 64 -185 -4 -8 -26 -61 -49 -119 -23 -58 -50 -123 -60 -145 -9 -22 -43 -104 -75 -182 l-58 -141 -66 -28 c-36 -15 -95 -39 -131 -54 -303 -127 -397 -164 -410 -163 -21 2 -590 238 -599 249 -5 5 -26 54 -49 109 -22 55 -77 187 -122 294 l-80 195 114 275 c64 152 120 288 125 302 8 22 32 36 142 80 73 30 202 84 288 120 86 37 165 67 176 68 12 1 102 -32 200 -73z m-1527 -398 c63 -87 226 -311 249 -344 l22 -31 -105 -144 c-57 -79 -127 -176 -155 -216 -28 -39 -56 -70 -62 -68 -14 5 -1694 425 -1705 426 -10 1 1680 427 1700 428 10 1 34 -22 56 -51z m3587 -162 l850 -212 -709 -177 c-390 -98 -711 -175 -713 -173 -3 3 115 97 223 177 6 5 26 -2 47 -16 63 -43 80 -37 277 97 l180 122 0 33 0 33 -57 0 c-32 1 -313 2 -625 3 -311 1 -569 5 -573 8 -10 10 218 319 235 318 8 0 397 -96 865 -213z m-1009 -335 l109 -143 70 5 70 5 56 -49 c43 -37 65 -49 90 -50 21 0 -22 -15 -111 -38 -80 -21 -148 -36 -151 -35 -3 2 -52 68 -109 146 -57 79 -123 170 -148 203 -24 33 -46 65 -49 71 -2 7 8 30 24 52 l28 39 6 -31 c3 -19 49 -89 115 -175z m-3062 -392 c2 -2 16 -42 31 -89 15 -47 52 -137 81 -201 l55 -116 -193 -321 c-141 -233 -196 -318 -205 -310 -16 13 -150 216 -203 307 -131 226 -251 566 -293 832 l-14 86 369 -93 c203 -50 371 -94 372 -95z m4376 172 c0 -21 -43 -230 -60 -296 -85 -317 -262 -681 -437 -898 l-22 -27 -190 320 c-105 175 -191 323 -191 327 0 5 8 24 19 44 33 61 98 222 116 284 10 33 21 64 25 68 8 9 691 184 723 186 9 1 17 -3 17 -8z m-3726 -336 c50 -8 166 -26 257 -41 l167 -27 22 -141 c12 -77 30 -194 41 -260 11 -65 19 -120 17 -121 -2 -2 -199 -121 -248 -150 -3 -2 9 27 28 63 44 89 69 220 78 402 l7 150 -274 -2 -274 -3 1 -136 c2 -192 35 -347 96 -449 45 -74 86 -100 157 -100 l56 0 -535 -321 c-294 -176 -550 -330 -569 -342 -19 -11 -32 -17 -29 -11 48 85 902 1504 906 1504 2 0 46 -7 96 -15z m2893 -741 c249 -415 449 -753 445 -751 -38 21 -1489 892 -1496 897 -4 5 0 61 9 127 22 148 63 394 68 399 1 2 50 11 107 20 58 9 166 27 240 39 74 13 144 23 155 24 16 0 109 -149 472 -755z m-2707 416 c0 -58 -31 -185 -61 -250 l-30 -64 -20 29 c-28 43 -67 173 -75 249 l-7 66 97 0 96 0 0 -30z m1136 -170 c64 -47 149 -109 190 -137 40 -29 76 -57 79 -63 4 -6 -8 -72 -26 -146 l-34 -136 -13 53 c-25 100 -69 134 -166 127 l-56 -3 0 58 c0 67 -19 113 -58 142 -22 16 -43 20 -112 20 l-86 0 -48 -35 c-30 -22 -63 -59 -87 -99 l-39 -65 0 -62 0 -63 22 -15 c13 -10 44 -16 75 -16 l52 0 -22 -47 c-18 -40 -22 -66 -22 -153 l0 -105 26 -55 c51 -110 118 -155 229 -155 88 0 125 20 156 82 18 38 25 168 11 224 l-6 24 55 0 c32 0 53 -4 51 -10 -2 -5 -75 -297 -163 -647 -87 -350 -159 -636 -160 -635 -1 1 -97 380 -214 842 -116 462 -213 847 -216 856 -3 12 55 59 212 173 l217 156 18 -12 c10 -7 70 -51 135 -98z m-92 -603 c0 -83 -1 -158 -2 -166 -4 -29 -52 32 -69 85 l-16 53 12 43 c7 24 27 64 44 90 18 26 32 48 32 48 0 0 0 -69 -1 -153z m-874 73 c41 -21 125 -54 185 -75 61 -21 111 -38 112 -39 2 -1 45 -169 97 -373 l94 -370 -107 19 c-357 64 -674 191 -981 394 -52 35 -108 74 -123 86 l-28 23 318 192 c223 134 324 189 338 186 11 -3 54 -23 95 -43z m2057 -143 l323 -194 -28 -20 c-231 -170 -470 -295 -728 -382 -154 -52 -328 -95 -426 -107 l-56 -7 92 370 91 370 100 32 c55 18 145 54 200 81 55 27 102 49 105 49 3 1 150 -86 327 -192z">
    </path>
    <path
      d="M3202 5403 c-5 -10 -15 -47 -22 -83 -25 -130 -62 -265 -86 -316 -27 -56 -84 -114 -112 -114 -31 0 -42 -22 -42 -83 l0 -58 44 -20 c60 -26 126 -102 179 -207 48 -95 71 -111 139 -98 l33 6 42 83 c61 117 109 177 168 208 l50 25 0 65 0 64 -47 22 c-80 38 -121 127 -173 372 -14 69 -31 131 -37 138 -6 8 -33 13 -69 13 -45 0 -60 -4 -67 -17z m108 -644 l-38 -49 -38 51 -37 51 16 27 c10 14 27 47 38 73 l21 46 38 -75 38 -76 -38 -48z">
    </path>
    <path
      d="M2774 3599 c-28 -10 -69 -35 -92 -55 l-42 -36 0 -52 c0 -64 20 -86 82 -93 36 -4 51 1 97 31 30 19 67 38 82 41 33 7 92 -9 131 -36 42 -30 128 -26 180 9 30 20 54 27 88 27 34 0 58 -7 88 -27 56 -37 135 -39 190 -4 76 48 117 46 202 -9 64 -41 114 -46 154 -14 l26 20 0 54 0 53 -42 36 c-65 56 -131 76 -248 76 -67 0 -112 -5 -139 -16 l-39 -15 -53 15 c-68 21 -210 21 -277 1 l-52 -16 -45 16 c-67 22 -226 20 -291 -6z">
    </path>
    <path
      d="M2824 3366 c-73 -17 -162 -69 -175 -103 -5 -13 -9 -44 -9 -67 0 -58 21 -76 91 -76 46 0 62 5 99 33 60 44 127 45 190 3 67 -44 104 -45 184 -2 37 20 81 36 98 36 17 0 59 -16 94 -35 67 -38 105 -43 144 -20 112 65 160 69 232 16 35 -26 51 -31 99 -31 70 0 89 19 89 93 0 39 -5 52 -27 73 -94 87 -268 117 -404 69 l-41 -15 -47 17 c-63 23 -219 23 -282 0 l-47 -17 -43 15 c-62 22 -173 27 -245 11z">
    </path>
    <path
      d="M2860 3121 c-82 -9 -138 -32 -188 -79 l-32 -30 0 -49 c0 -73 19 -93 85 -93 45 0 62 6 99 31 58 42 118 48 174 20 22 -11 43 -25 47 -31 3 -5 32 -10 63 -10 45 0 64 5 96 28 32 22 50 27 96 27 46 0 64 -5 96 -27 31 -22 52 -28 93 -28 42 0 60 6 88 28 30 22 47 27 94 27 48 0 64 -5 102 -32 37 -27 55 -33 96 -33 69 0 91 22 91 91 l0 51 -32 30 c-64 60 -102 72 -235 76 -93 3 -134 0 -168 -11 l-45 -16 -35 15 c-47 19 -243 19 -290 -1 l-35 -14 -42 15 c-55 19 -127 24 -218 15z">
    </path>
    <path
      d="M1460 3522 c-92 -31 -141 -61 -217 -136 l-73 -72 0 -43 0 -44 45 -52 c56 -66 137 -121 229 -154 l71 -25 135 1 c108 0 147 4 192 20 86 30 164 81 224 147 l54 59 0 45 c0 56 -42 111 -135 178 -103 73 -155 88 -325 91 -119 2 -155 0 -200 -15z m-29 -254 l-6 -46 -28 22 -29 23 33 27 c17 15 33 26 34 24 1 -2 -1 -24 -4 -50z m464 25 l29 -26 -23 -18 c-33 -27 -39 -24 -43 26 -2 25 -1 45 2 45 3 0 18 -12 35 -27z m-228 -69 c8 -20 -17 -36 -34 -22 -10 8 -10 14 -2 24 15 18 28 18 36 -2z">
    </path>
    <path
      d="M4265 2447 c-92 -37 -153 -97 -179 -175 -20 -57 -20 -202 -2 -255 35 -97 115 -164 225 -189 63 -14 190 0 242 27 103 54 167 183 156 316 -10 118 -60 200 -157 257 l-45 27 -105 2 c-66 2 -116 -2 -135 -10z m165 -262 c41 -21 70 -63 70 -101 0 -37 -36 -86 -81 -110 l-29 -14 -33 13 c-42 18 -87 71 -87 103 0 38 27 83 63 104 38 24 59 25 97 5z">
    </path>
  </g>
  <g fill="rgb(0,0,5)">
    <path
      d="M3036 5557 c-126 -507 -231 -929 -233 -937 -2 -10 77 -72 226 -180 126 -91 235 -166 243 -167 7 -2 63 34 124 80 61 45 165 121 231 170 l120 87 -117 463 c-64 254 -170 675 -234 935 -65 259 -121 472 -125 472 -3 0 -109 -416 -235 -923z m272 -180 c6 -7 23 -69 37 -138 52 -245 93 -334 173 -372 l47 -22 0 -34 0 -35 -50 -25 c-59 -31 -107 -91 -168 -208 -62 -121 -90 -119 -155 10 -51 103 -118 180 -178 206 -37 17 -44 24 -44 48 0 33 16 53 42 53 28 0 85 58 112 114 24 51 61 186 86 316 7 36 17 73 22 83 10 20 60 23 76 4z">
    </path>
    <path
      d="M3260 5067 c0 -41 -47 -154 -86 -209 l-34 -48 50 -62 c28 -34 56 -75 63 -90 6 -15 14 -28 18 -28 3 0 15 18 27 39 12 21 43 62 68 91 l47 51 -26 27 c-29 31 -67 105 -91 177 -23 70 -36 88 -36 52z">
    </path>
    <path
      d="M2905 5843 c-89 -12 -287 -57 -391 -89 -297 -89 -532 -209 -811 -412 -35 -25 -63 -48 -63 -51 1 -3 161 -102 356 -218 l355 -213 112 55 c62 30 160 70 219 91 69 23 109 42 112 53 8 27 196 783 196 787 0 4 -40 3 -85 -3z">
    </path>
    <path
      d="M3653 5447 l102 -405 110 -37 c60 -20 159 -62 219 -92 l109 -54 358 214 358 215 -22 19 c-146 128 -455 304 -682 388 -199 74 -423 131 -597 151 l-56 6 101 -405z">
    </path>
    <path
      d="M990 5535 c0 -5 976 -1643 986 -1654 2 -2 79 8 171 23 93 15 211 33 263 42 156 24 148 21 154 62 6 44 74 476 81 513 l4 27 -822 492 c-943 566 -837 503 -837 495z m1298 -912 c28 -17 58 -48 77 -78 l30 -49 0 -75 c-1 -86 -14 -120 -69 -174 l-35 -33 11 -43 c14 -54 -1 -107 -41 -145 -67 -64 -184 -46 -227 35 -19 37 -21 114 -3 135 10 13 6 20 -23 45 -52 42 -78 102 -79 181 -1 81 18 125 77 177 55 48 93 61 172 57 48 -3 74 -11 110 -33z">
    </path>
    <path
      d="M2117 4575 c-100 -34 -143 -135 -97 -225 54 -105 183 -119 264 -29 83 91 27 239 -99 262 -16 3 -47 -1 -68 -8z">
    </path>
    <path
      d="M2103 4164 c-21 -33 -7 -72 33 -92 l34 -16 28 21 c29 21 39 61 24 90 -7 12 -24 17 -57 18 -38 0 -50 -4 -62 -21z">
    </path>
    <path
      d="M4725 5045 c-451 -271 -821 -499 -823 -507 -2 -8 8 -82 22 -164 13 -82 32 -202 42 -268 10 -65 24 -124 31 -131 6 -7 38 -16 70 -20 32 -4 151 -22 266 -41 114 -19 214 -34 221 -34 8 0 228 356 499 808 521 868 512 852 500 851 -4 0 -377 -223 -828 -494z m-357 -379 c99 -52 168 -237 179 -483 l6 -133 -244 0 -245 0 4 98 c3 105 24 238 49 317 55 172 154 251 251 201z">
    </path>
    <path
      d="M4277 4553 c-38 -43 -82 -187 -93 -308 -3 -38 -7 -74 -8 -80 0 -6 51 -11 133 -13 l134 -3 -7 83 c-14 173 -76 338 -125 338 -10 0 -25 -8 -34 -17z">
    </path>
    <path
      d="M1183 4823 c-211 -283 -365 -607 -447 -943 -43 -176 -67 -334 -52 -337 6 -2 189 41 406 96 l394 98 37 104 c46 133 90 235 123 288 l27 42 -216 359 c-119 198 -217 360 -219 360 -1 0 -25 -30 -53 -67z">
    </path>
    <path
      d="M5092 4532 l-213 -356 60 -126 c32 -69 72 -163 87 -210 14 -47 32 -90 38 -96 13 -13 794 -209 802 -201 9 9 -17 167 -51 312 -85 357 -228 665 -442 952 -29 40 -57 74 -61 77 -4 2 -103 -156 -220 -352z">
    </path>
    <path
      d="M3188 4113 c-46 -19 -181 -75 -302 -124 -243 -100 -256 -106 -256 -119 0 -6 -56 -145 -125 -310 -69 -165 -125 -303 -125 -307 0 -4 39 -99 86 -212 47 -113 104 -251 126 -306 23 -55 46 -105 52 -111 6 -6 135 -61 286 -124 151 -62 290 -119 308 -128 l32 -15 188 78 c103 43 216 90 252 105 36 15 95 39 131 54 l66 28 58 141 c32 78 66 160 75 182 10 22 36 87 59 144 23 57 49 117 57 132 l14 29 -90 217 c-50 120 -107 259 -127 308 -20 50 -43 97 -52 106 -9 9 -63 35 -121 59 -58 24 -196 80 -307 125 l-201 83 -84 -35z m-120 -551 l43 -21 47 22 c38 18 66 22 142 22 76 0 104 -4 142 -22 l47 -22 43 22 c30 15 67 22 123 25 96 4 169 -18 234 -74 49 -43 52 -75 9 -107 l-26 -20 -34 22 c-79 50 -118 63 -182 59 -44 -3 -73 -11 -103 -31 -54 -34 -83 -34 -135 1 l-42 27 -76 0 -76 0 -42 -27 c-49 -33 -84 -35 -120 -10 -86 60 -187 56 -285 -11 -39 -27 -58 -26 -89 1 -30 25 -22 57 24 96 66 57 128 77 228 73 61 -3 97 -9 128 -25z m-7 -246 l57 -23 28 15 c89 47 227 46 313 -2 l24 -13 43 18 c114 51 243 41 341 -27 60 -41 73 -72 49 -109 -22 -34 -62 -32 -112 5 -58 42 -123 55 -189 36 -28 -9 -63 -24 -76 -34 -40 -31 -51 -31 -117 6 -88 48 -145 49 -238 2 -75 -39 -81 -39 -133 -5 -83 54 -176 52 -255 -5 -69 -51 -136 -29 -121 40 14 65 178 136 285 123 25 -3 70 -15 101 -27z m17 -251 l39 -16 52 21 c72 28 194 28 261 -1 l48 -21 61 22 c51 19 75 22 153 18 102 -5 148 -22 206 -76 37 -34 41 -63 12 -92 -28 -28 -55 -25 -103 9 -84 59 -190 61 -263 6 -40 -31 -73 -32 -108 -4 -74 59 -198 58 -274 -1 -33 -27 -64 -25 -108 5 -80 54 -180 52 -262 -5 -51 -36 -85 -38 -106 -8 -24 33 -19 57 16 90 51 48 106 70 188 77 79 7 125 1 188 -24z">
    </path>
    <path
      d="M982 3495 c-508 -128 -926 -236 -929 -239 -4 -3 -4 -7 -2 -9 2 -1 418 -105 924 -231 506 -126 925 -231 932 -233 6 -3 36 31 67 74 31 43 108 149 171 236 67 92 112 163 108 170 -4 7 -61 86 -127 177 -66 91 -140 193 -165 228 -25 34 -47 61 -50 61 -3 -1 -421 -107 -929 -234z m851 -13 c102 -37 257 -166 257 -214 0 -25 -104 -131 -164 -167 -94 -56 -157 -73 -276 -74 -123 -1 -208 24 -304 88 -74 49 -150 137 -141 164 9 28 138 147 187 172 93 48 146 59 268 56 86 -3 129 -9 173 -25z">
    </path>
    <path
      d="M1562 3415 c-35 -8 -83 -24 -107 -35 -52 -25 -135 -96 -135 -116 0 -13 82 -80 125 -102 l20 -10 -3 39 c-6 61 6 106 40 145 38 43 61 56 117 65 120 18 211 -63 212 -189 l1 -60 34 20 c18 10 52 37 76 58 l43 38 -44 40 c-63 57 -124 88 -213 106 -90 19 -84 19 -166 1z">
    </path>
    <path d="M1601 3256 c-28 -30 -23 -68 14 -92 61 -40 127 44 75 96 -27 27 -62 25 -89 -4z"></path>
    <path
      d="M4591 3676 c-227 -310 -301 -415 -301 -423 0 -6 26 -46 58 -89 32 -43 107 -146 167 -229 59 -82 109 -151 110 -153 2 -2 1836 453 1864 464 8 2 11 7 8 10 -3 3 -425 111 -937 239 l-931 232 -38 -51z m1052 -359 c4 -1 -73 -57 -172 -125 l-180 -122 -48 30 c-26 16 -53 30 -61 30 -8 0 -73 -45 -144 -100 l-130 -101 -64 57 -65 57 -60 -13 c-35 -8 -63 -9 -68 -4 -22 23 -221 288 -221 293 0 6 1196 4 1213 -2z">
    </path>
    <path
      d="M675 2948 c2 -13 12 -68 20 -123 43 -276 161 -615 296 -846 101 -175 237 -365 250 -352 4 4 102 165 218 356 l209 349 -55 110 c-30 61 -71 160 -91 219 l-37 109 -35 10 c-118 31 -761 190 -770 190 -6 0 -8 -10 -5 -22z">
    </path>
    <path
      d="M5456 2870 c-213 -54 -392 -102 -396 -107 -4 -4 -15 -35 -25 -68 -19 -69 -83 -221 -126 -304 l-30 -57 213 -357 c117 -196 215 -357 218 -357 8 1 117 151 174 242 64 101 171 311 216 423 69 173 108 312 145 509 28 156 30 176 13 175 -7 0 -188 -45 -402 -99z">
    </path>
    <path
      d="M1973 2618 c-27 -34 -984 -1640 -980 -1644 4 -5 1628 965 1649 985 4 3 -3 72 -16 151 -14 80 -34 209 -46 286 l-22 141 -167 27 c-91 15 -209 33 -261 42 -52 8 -107 17 -121 20 -15 3 -30 -1 -36 -8z m463 -310 c-20 -331 -107 -518 -242 -518 -102 0 -174 107 -219 328 -16 77 -29 277 -19 293 3 5 110 9 246 9 l240 0 -6 -112z">
    </path>
    <path d="M2066 2248 c12 -140 55 -285 99 -332 21 -23 28 -25 46 -16 45 25 100 190 114 348 l5 62 -134 0 -135 0 5 -62z">
    </path>
    <path
      d="M4430 2609 c-58 -10 -168 -28 -245 -39 -196 -30 -198 -30 -202 -65 -2 -17 -15 -95 -27 -175 -43 -262 -59 -371 -55 -373 57 -40 1652 -987 1661 -987 9 0 9 3 2 8 -6 4 -233 377 -504 830 -337 561 -498 822 -509 821 -9 -1 -63 -10 -121 -20z m91 -211 c191 -113 205 -371 28 -494 -46 -31 -134 -53 -194 -48 -56 5 -158 58 -187 97 -65 85 -85 191 -54 284 41 123 150 195 287 190 60 -3 85 -9 120 -29z">
    </path>
    <path
      d="M4337 2226 c-51 -19 -67 -34 -89 -84 -45 -102 31 -212 145 -212 38 0 90 31 121 73 29 39 28 126 -1 164 -41 57 -114 81 -176 59z">
    </path>
    <path
      d="M3043 2077 c-122 -89 -227 -167 -233 -173 -8 -8 50 -257 222 -940 128 -511 234 -931 235 -933 2 -2 6 -2 9 2 8 8 463 1827 463 1852 0 13 -21 35 -62 65 -59 42 -180 130 -331 240 -38 27 -71 50 -75 49 -3 0 -106 -73 -228 -162z m272 -134 c31 -23 55 -72 55 -112 0 -45 -35 -131 -81 -197 -23 -32 -48 -76 -55 -97 -30 -85 -7 -206 48 -252 62 -52 89 -25 87 87 -5 259 5 329 54 363 72 51 167 -30 169 -143 2 -85 -28 -126 -73 -101 l-21 11 7 64 c7 70 -4 86 -43 65 -29 -16 -32 -54 -11 -155 10 -50 19 -116 20 -147 4 -219 -241 -235 -338 -22 -51 111 -39 209 38 338 77 127 95 205 48 205 -29 0 -61 -40 -83 -101 -23 -68 -32 -79 -65 -79 -42 0 -71 26 -71 63 0 72 106 204 183 229 34 11 105 0 132 -19z">
    </path>
    <path
      d="M1997 1436 c-196 -116 -356 -214 -356 -217 -1 -8 125 -102 214 -160 257 -166 546 -288 838 -353 132 -30 284 -52 292 -44 5 5 -190 797 -198 804 -1 1 -51 18 -111 39 -60 20 -158 61 -217 90 l-107 53 -355 -212z">
    </path>
    <path
      d="M4072 1590 c-62 -32 -159 -72 -215 -90 l-102 -33 -98 -396 c-53 -218 -97 -401 -97 -407 0 -28 376 53 585 127 258 90 580 268 758 420 8 6 -705 442 -715 437 -1 -1 -54 -27 -116 -58z">
    </path>
  </g>
</svg>